<svg width="1920" height="1080" xmlns="http://www.w3.org/2000/svg" xmlns:xlink="http://www.w3.org/1999/xlink">
 <title>House of Love Landscape</title>
 <defs>
  <clipPath id="clipPath4234" clipPathUnits="userSpaceOnUse">
   <path fill="#9cf000" stroke-width="3" stroke-linecap="round" stroke-linejoin="round" stroke-miterlimit="4" stroke-dashoffset="0" id="path4236" d="m-701.79456,87.70779c-11.65564,0 -21.0625,5.75214 -21.0625,12.875l0,830.03122c73.68152,-9.90722 153.85242,-15.0625 237.15613,-15.0625c343.81714,0 484.30573,44.11756 822.84378,235.71875c342.85715,194.04578 775.26804,461.42408 -891.40628,464.28125c-60.10473,0.10327 -116.48388,-9.39807 -168.59363,-25.93737l0,150.96875c0,7.1228 9.40686,12.84399 21.0625,12.84362l2229.34363,0c11.65552,0 21.03125,-5.72082 21.03125,-12.84362l0,-640.00013l0,-67.40625l0,-932.59372c0,-7.12286 -9.37573,-12.875 -21.03125,-12.875l-2229.34363,0z"/>
  </clipPath>
  <clipPath id="clipPath4253" clipPathUnits="userSpaceOnUse">
   <path fill="url(#linearGradient4257)" stroke-width="3" stroke-linecap="round" stroke-linejoin="round" stroke-miterlimit="4" stroke-dashoffset="0" id="path4255" d="m272.49106,64.85065c-11.65558,0 -21.0625,5.75213 -21.0625,12.87499l0,830.03126l0,169.96869l0,640c0,7.12292 9.40695,12.84399 21.0625,12.84375l2229.3439,0c11.65527,0 21.03101,-5.72095 21.03101,-12.84375l0,-640l0,-67.40625l0,-932.5937c0,-7.12286 -9.37573,-12.87499 -21.03101,-12.87499l-2229.3439,0z"/>
  </clipPath>
  <filter id="filter4635" height="2.260247" y="-0.630123" width="1.382322" x="-0.191161">
   <feGaussianBlur id="feGaussianBlur4637" stdDeviation="40.507936"/>
  </filter>
  <filter id="filter4962" height="1.528696" y="-0.264348" width="1.496326" x="-0.248163">
   <feGaussianBlur id="feGaussianBlur4964" stdDeviation="57.904762"/>
  </filter>
  <filter id="filter5183" height="1.595822" y="-0.297911" width="1.260664" x="-0.130332">
   <feGaussianBlur id="feGaussianBlur5185" stdDeviation="24.825904"/>
  </filter>
  <clipPath id="clipPath5381" clipPathUnits="userSpaceOnUse">
   <path opacity="0.893333" fill="#fdfdfd" stroke-width="5" stroke-linecap="round" stroke-linejoin="round" stroke-miterlimit="4" stroke-dashoffset="0" id="path5383" d="m2459.775513,-547.02879c-48.51251,0 -90.27704,11.92996 -108.88458,29.02902c-4.26886,-0.29483 -8.6095,-0.45761 -13.01984,-0.45758c-57.8916,0 -104.88452,26.51587 -104.88452,59.18527c0,28.59149 35.99561,52.46454 83.78601,57.97986c14.84833,30.91944 81.28058,54.26343 160.92481,54.26346c90.54834,0 164.0426,-30.16827 164.0426,-67.34378l-0.11767,-1.08258c29.33374,-9.23206 48.5205,-24.50153 48.5205,-41.7746l-0.4215,-4.38614c-5.10059,-26.50934 -53.96741,-46.62063 -113.32581,-46.64062c-11.4801,-22.43338 -59.40552,-38.77231 -116.62,-38.77231z"/>
  </clipPath>
  <filter id="filter5445" height="1.437617" y="-0.218809" width="1.191452" x="-0.095726">
   <feGaussianBlur id="feGaussianBlur5447" stdDeviation="18.234042"/>
  </filter>
  <clipPath id="clipPath5495" clipPathUnits="userSpaceOnUse">
   <path opacity="0.893333" fill="#fdfdfd" stroke-width="5" stroke-linecap="round" stroke-linejoin="round" stroke-miterlimit="4" stroke-dashoffset="0" d="m3494.061163,-638.45732c-48.51245,0 -90.27698,11.9299 -108.88452,29.02899c-4.26892,-0.29483 -8.6095,-0.45764 -13.0199,-0.45758c-57.8916,0 -104.8844,26.51584 -104.8844,59.18525c0,28.59149 35.99548,52.46456 83.78601,57.97988c14.84827,30.91944 81.28052,54.2634 160.92481,54.26343c90.54834,0 164.04272,-30.16824 164.04272,-67.34378l-0.11792,-1.08258c29.33374,-9.23202 48.52051,-24.50153 48.52051,-41.77457l-0.42163,-4.38614c-5.10059,-26.50933 -53.96729,-46.62063 -113.32569,-46.64062c-11.47998,-22.43341 -59.40539,-38.77234 -116.61999,-38.77228z" id="path5497"/>
  </clipPath>
  <filter id="filter5575" height="1.438104" y="-0.219052" width="1.191665" x="-0.095832">
   <feGaussianBlur id="feGaussianBlur5577" stdDeviation="18.254341"/>
  </filter>
  <clipPath id="clipPath5671" clipPathUnits="userSpaceOnUse">
   <rect fill="url(#linearGradient5675)" stroke-width="3" stroke-linecap="round" stroke-linejoin="round" stroke-miterlimit="4" stroke-dashoffset="0" ry="21.597332" rx="35.341087" y="-746.088527" x="1601.843324" height="1722.9872" width="3815.5286" id="rect5673"/>
  </clipPath>
  <clipPath id="clipPath5677" clipPathUnits="userSpaceOnUse">
   <rect fill="url(#linearGradient5681)" stroke-width="3" stroke-linecap="round" stroke-linejoin="round" stroke-miterlimit="4" stroke-dashoffset="0" id="rect5679" width="3599.5803" height="1625.4709" x="1610.398384" y="-733.852027" rx="33.340881" ry="20.374983"/>
  </clipPath>
  <symbol id="svg_10" xmlns:xlink="http://www.w3.org/1999/xlink">
   <g id="svg_2">
    <rect fill="#ba5b07" fill-rule="evenodd" stroke="#000000" stroke-width="12.5" y="350.76004" x="258.228576" width="68.201149" id="svg_9" height="112.98997"/>
    <rect fill="#b30000" fill-rule="evenodd" stroke="#000000" stroke-width="12.5" y="508.70547" x="232.824886" width="299.4299" id="svg_8" height="210.17676"/>
    <rect fill="#4c4c4c" fill-rule="evenodd" stroke="#000000" stroke-width="12.5" y="555.16422" x="391.177276" width="97.890549" id="svg_7" height="161.72548"/>
    <rect fill="#ffffff" fill-rule="evenodd" stroke="#000000" stroke-width="12.5" y="573.70834" x="271.693236" width="77.73661" id="svg_6" height="77.73661"/>
    <path fill="none" fill-opacity="0.75" fill-rule="evenodd" stroke="#000000" stroke-width="12.5" id="svg_5" d="m311.65039,575.72201l0,71.25495"/>
    <path fill="none" fill-opacity="0.75" fill-rule="evenodd" stroke="#000000" stroke-width="12.5" id="svg_4" d="m347.27784,611.34946l-71.25495,0"/>
    <path fill="#000007" fill-rule="evenodd" stroke="#000000" stroke-width="12.5" id="svg_3" d="m201.22468,522.75088l363.40011,0l-183.87613,-179.15521l-179.52398,179.15521z"/>
   </g>
  </symbol>
  <linearGradient id="linearGradient4641">
   <stop stop-color="#fcaf3e" id="stop4643" offset="0"/>
   <stop stop-color="#ffce86" id="stop4645" offset="1"/>
  </linearGradient>
  <linearGradient id="linearGradient4368">
   <stop stop-color="#69d007" offset="0" id="stop4370"/>
   <stop stop-color="#4e9a06" stop-opacity="0" offset="1" id="stop4372"/>
  </linearGradient>
  <linearGradient id="linearGradient4336">
   <stop stop-color="#458905" id="stop4338" offset="0"/>
   <stop stop-color="#4e9a06" stop-opacity="0" id="stop4340" offset="1"/>
  </linearGradient>
  <linearGradient id="linearGradient4328">
   <stop stop-color="#8f5902" id="stop4330" offset="0"/>
   <stop stop-color="#724701" id="stop4332" offset="1"/>
  </linearGradient>
  <linearGradient id="linearGradient4238">
   <stop stop-color="#55a800" id="stop4240" offset="0"/>
   <stop stop-color="#74e400" id="stop4242" offset="1"/>
  </linearGradient>
  <linearGradient id="linearGradient4103">
   <stop stop-color="#00acf4" id="stop4105" offset="0"/>
   <stop stop-color="#a6e5ff" id="stop4107" offset="1"/>
  </linearGradient>
  <linearGradient y2="1.000097" x2="0.474214" y1="-0.189418" x1="0.474214" id="linearGradient4109" xlink:href="#linearGradient4103"/>
  <linearGradient y2="0.615842" x2="0.474216" y1="-0.116636" x1="0.474216" id="linearGradient4257" xlink:href="#linearGradient4103"/>
  <linearGradient y2="1.425902" x2="0.510673" y1="-0.070132" x1="0.5" id="linearGradient4263" xlink:href="#linearGradient4238"/>
  <linearGradient y2="Infinity" x2="0.65567" y1="Infinity" x1="0.762445" id="linearGradient4382" xlink:href="#linearGradient4336"/>
  <linearGradient y2="-Infinity" x2="0.552103" y1="-Infinity" x1="0.43915" id="linearGradient4384" xlink:href="#linearGradient4368"/>
  <linearGradient y2="Infinity" x2="0.683021" y1="-Infinity" x1="0.109724" id="linearGradient4386" xlink:href="#linearGradient4368"/>
  <linearGradient y2="-Infinity" x2="0.659074" y1="Infinity" x1="0.037881" id="linearGradient4388" xlink:href="#linearGradient4336"/>
  <linearGradient y2="0.5" x2="0.999999" y1="0.5" x1="0.5" id="linearGradient4390" xlink:href="#linearGradient4328"/>
  <radialGradient gradientUnits="userSpaceOnUse" gradientTransform="matrix(1.3896636,0.7071731,-0.555426,1.0914658,234.03392,455.11869)" r="284.19949" fy="-27.637817" fx="-640" cy="-27.637817" cx="-640" id="radialGradient4647" xlink:href="#linearGradient4641"/>
  <linearGradient y2="1.000097" x2="0.474214" y1="-0.189418" x1="0.474214" id="linearGradient5675" xlink:href="#linearGradient4103"/>
  <linearGradient y2="1.000097" x2="0.474214" y1="-0.189418" x1="0.474214" id="linearGradient5681" xlink:href="#linearGradient4103"/>
 </defs>
 <metadata id="metadata7">image/svg+xmlSummer LandscapeCarlos AsmatsummergreenlandscapetreecloudsA simple summer landscape featuring green grass, a blue sky and white clouds.</metadata>
 <g>
  <title>background</title>
  <rect x="-1" y="-1" width="1602" height="1202" id="canvas_background" fill="none"/>
 </g>
 <g>
  <title>Layer 1</title>
  <g display="inline" id="layer2">
   <rect fill="url(#linearGradient4109)" stroke-width="3" stroke-linecap="round" stroke-linejoin="round" stroke-miterlimit="4" stroke-dashoffset="0" ry="12.857142" rx="21.03896" y="-89.500209" x="-248.750557" height="1025.7142" width="2271.4285" id="rect2160"/>
   <path stroke="null" fill="url(#linearGradient4263)" stroke-width="3" stroke-linecap="round" stroke-linejoin="round" stroke-miterlimit="4" stroke-dashoffset="0" id="path4202" d="m969.178046,95.887463c-215.17157,0 -379.22156,58.93718 -506.1875,148.72763c-139.69275,-84.21442 -270.22424,-109.3538 -468.09375,-109.3538c-83.30292,0 -163.47565,8.87304 -237.15625,25.92648l0,1394.16686c0,12.26039 9.40692,22.10743 21.0625,22.10743l2229.34375,0c11.65552,0 21.03125,-9.84724 21.03125,-22.10743l-1.53846,-1217.63013c-127.74319,1.59814 -337.35181,-84.53025 -502.2981,-78.42843c-168.04761,-109.96061 -299.32189,-163.40861 -556.16344,-163.40861z"/>
  </g>
  <g display="inline" id="layer1" stroke="null">
   <path opacity="0.031111" fill="#000000" stroke-width="5" stroke-linecap="round" stroke-linejoin="round" stroke-miterlimit="4" stroke-dashoffset="0" filter="url(#filter5183)" id="path5189" d="m452.019339,275.959499c37.18722,0 69.20171,7.68305 83.46521,18.69529c3.27233,-0.18992 6.59965,-0.29472 9.98047,-0.29472c44.37673,0 80.39903,17.07676 80.39903,38.11647c0,18.41349 -27.59241,33.78821 -64.22598,37.3402c-11.3821,19.91287 -62.30558,34.94688 -123.35682,34.94688c-69.4097,0 -125.74661,-19.42891 -125.74661,-43.37069l0.09024,-0.6972c-22.48568,-5.94581 -37.19339,-15.7796 -37.19339,-26.90379l0.32317,-2.82473c3.9099,-17.07261 41.36865,-30.02474 86.86975,-30.03757c8.80005,-14.4476 45.53724,-24.97013 89.39493,-24.97013l0,-0.00001z" stroke="null"/>
   <path stroke="null" opacity="0.288889" fill="#f57900" stroke-width="8.398963" stroke-linecap="round" stroke-linejoin="round" stroke-miterlimit="4" stroke-dashoffset="0" filter="url(#filter4962)" clip-path="url(#clipPath5677)" id="path4649" d="m1810.379031,114.903308a67.36812,74.948418 0 1 1 -0.249081,-6.439172"/>
   <g transform="matrix(0.21067304203555612,0,0,0.2856251976650685,682.9595834800045,804.0774657327278) " id="g4374" stroke="null">
    <path fill="#4e9a06" stroke-width="3" stroke-linecap="round" stroke-linejoin="round" stroke-miterlimit="4" stroke-dashoffset="0" d="m-2273.452552,-2609.981051c-94.87518,0 -178.40765,43.14334 -226.93744,108.40634c-152.31238,26.53235 -267.34387,145.77135 -267.34387,288.74999c0,76.82779 33.23145,146.79177 87.59375,199.21877c-1.22973,10.57972 -1.875,21.33716 -1.875,32.21875c0,164.02297 143.36023,297.12502 320.00012,297.12502c87.11249,0 166.12275,-32.38281 223.84369,-84.875c39.23047,17.85498 82.35865,27.75 127.59375,27.75c181.37149,0 328.56253,-158.74683 328.56253,-354.31251c0,-195.5657 -147.19104,-354.28135 -328.56253,-354.28135c-2.30249,0 -4.61499,0.04291 -6.90625,0.09381c-37.26733,-93.21898 -137.83252,-160.09382 -255.96875,-160.09382z" id="path4314" stroke="null"/>
    <path fill="url(#linearGradient4382)" stroke-width="3" stroke-linecap="round" stroke-linejoin="round" stroke-miterlimit="4" stroke-dashoffset="0" id="path4305" d="m-1682.019532,-2095.686441a328.57144,354.28571 0 1 1 -657.14298,0a328.57144,354.28571 0 1 1 657.14298,0z" stroke="null"/>
    <path fill="url(#linearGradient4384)" stroke-width="3" stroke-linecap="round" stroke-linejoin="round" stroke-miterlimit="4" stroke-dashoffset="0" id="path4301" d="m-2002.019562,-2369.972131a271.42856,240 0 1 1 -542.85712,0a271.42856,240 0 1 1 542.85712,0z" stroke="null"/>
    <path fill="url(#linearGradient4386)" stroke-width="3" stroke-linecap="round" stroke-linejoin="round" stroke-miterlimit="4" stroke-dashoffset="0" id="path4303" d="m-2104.876802,-2212.829241a331.42856,294.28571 0 1 1 -662.85706,0a331.42856,294.28571 0 1 1 662.85706,0z" stroke="null"/>
    <path fill="url(#linearGradient4390)" stroke-width="3" stroke-linecap="round" stroke-linejoin="round" stroke-miterlimit="4" stroke-dashoffset="0" d="m-2377.549902,-1858.172221c167.68524,278.80213 150.51263,-74.75122 238.39594,44.44678c-61.61939,349.51282 50.50756,480.83252 12.12182,848.52814c-123.23877,44.44678 -110.10669,-46.46704 -335.37054,-24.2439c-7.07129,-341.43121 82.83252,-626.29425 84.85278,-868.73101l0,-0.00001z" id="rect4323" stroke="null"/>
    <path opacity="0.311111" fill="url(#linearGradient4388)" stroke-width="3" stroke-linecap="round" stroke-linejoin="round" stroke-miterlimit="4" stroke-dashoffset="0" id="path4307" d="m-2042.019442,-1981.400621a320,297.14285 0 1 1 -640.00006,0a320,297.14285 0 1 1 640.00006,0z" stroke="null"/>
   </g>
   <path opacity="0.698" fill="#1e9e00" stroke-width="3" stroke-linecap="round" stroke-linejoin="round" stroke-miterlimit="4" stroke-dashoffset="0" d="m103.619289,440.171119c-2.29057,0.91892 -2.86352,3.02888 -4.78676,6.18419c-2.50273,5.41485 -7.57207,21.6322 -7.0017,24.28394c0.75593,4.77706 7.12449,-22.29103 11.78846,-30.46813zm-43.00178,11.80807c5.43632,19.5149 5.94804,20.97684 10.18783,20.69389c-0.90042,-3.60096 -3.48533,-6.53373 -5.29925,-9.95548c-1.93342,-3.64747 -2.98439,-10.46858 -4.88858,-10.73841zm19.10853,0.71153c-6.18726,12.75072 -6.84809,17.34277 -5.80591,18.77876c1.90556,1.38609 1.48959,-2.23167 5.80591,-18.77876zm11.57539,2.73425c-1.5232,-0.48909 -2.63287,3.92714 -3.23831,7.53949c-1.54587,9.22301 -1.56339,7.89202 -0.52135,8.6738c1.43666,1.07757 1.42763,-8.33343 3.75966,-16.21329zm10.24557,-0.84692c-1.59432,0.09004 -2.42361,3.8263 -3.54158,7.27498c-1.12282,6.57598 -4.39092,10.66072 -2.08604,10.91066c2.29156,0.24841 3.87696,-10.38047 5.62762,-18.18564zm-17.0878,2.52967c-5.02786,10.57378 -6.1032,13.81699 -4.08372,14.25367c1.302,0.28151 1.40477,-2.3023 2.89125,-6.64644c0.95746,-2.79852 2.15122,-5.25051 1.19246,-7.60724l0.00001,0.00001z" id="path7786" stroke="null"/>
   <g id="g7640" stroke="null">
    <path fill="#ad7fa8" stroke-width="3" stroke-linecap="round" stroke-linejoin="round" stroke-miterlimit="4" stroke-dashoffset="0" id="path4271" d="m166.317299,580.231309a16.42618,10.48834 0 1 1 -32.85234,0a16.42618,10.48834 0 1 1 32.85234,0z" stroke="null"/>
    <path fill="#ce5c00" stroke-width="3" stroke-linecap="round" stroke-linejoin="round" stroke-miterlimit="4" stroke-dashoffset="0" d="m101.132939,477.555619c-0.94115,0.74588 -3.26332,0.06369 -4.58128,0.31016c-1.36153,0.25429 -2.83116,2.32189 -4.21083,2.01974c-1.33554,-0.2927 -2.18949,-2.59558 -3.16484,-3.31927c-1.00762,-0.74771 -3.05371,-0.59784 -3.49252,-1.60052c-0.42476,-0.97064 1.3895,-2.54337 1.75403,-3.52598c0.37657,-1.01484 -0.59294,-2.72373 0.42199,-3.4478c0.98252,-0.70062 3.15093,0.2732 4.45206,0.00222c1.34421,-0.28006 2.77852,-1.96338 4.16881,-1.71411c1.34576,0.24097 2.23333,1.96811 3.21975,2.66265c1.01906,0.71751 3.76403,0.92914 4.23059,1.90615c0.45158,0.94603 -2.3108,2.05371 -2.58907,3.04664c-0.28749,1.02613 0.76353,2.89001 -0.20869,3.66012z" id="path5606" stroke="null"/>
    <path fill="#f57900" stroke-width="3" stroke-linecap="round" stroke-linejoin="round" stroke-miterlimit="4" stroke-dashoffset="0" d="m74.404939,501.099569c-1.1803,0.75919 -3.43421,0.89739 -5.1102,1.16335c-1.67597,0.26606 -4.12977,1.54233 -5.77982,1.23072c-1.64998,-0.3119 -3.15321,-1.84757 -4.35481,-2.57907c-1.20168,-0.73161 -3.38248,-1.47497 -3.89105,-2.4764c-0.50859,-1.00152 1.12641,-2.54414 1.52543,-3.53283c0.39897,-0.98849 -0.06086,-2.92021 1.16986,-3.63319c1.23077,-0.71259 4.26441,-0.27446 5.86435,-0.59311c1.59988,-0.31876 3.14984,-1.42479 4.81348,-1.16597c1.66371,0.25873 3.15873,1.81535 4.3549,2.57889c1.19608,0.76373 4.3309,1.13962 4.87322,2.11595c0.54229,0.97623 -1.14557,2.58467 -1.59342,3.55927c-0.44789,0.97469 -0.69157,2.57328 -1.87194,3.33239z" id="path5604" stroke="null"/>
    <path fill="#fcc916" stroke-width="3" stroke-linecap="round" stroke-linejoin="round" stroke-miterlimit="4" stroke-dashoffset="0" id="path5600" d="m120.423759,482.535039c-0.93746,0.5909 -3.62535,-0.29125 -4.91957,0.02393c-1.2942,0.31509 -3.9523,2.00652 -5.37056,1.81062c-1.41827,-0.19581 -2.13366,-1.74924 -3.3257,-2.2388c-1.19204,-0.48957 -3.30653,-0.42279 -3.86092,-1.15381c-0.55436,-0.73102 0.73163,-2.44146 1.06484,-3.20269c0.3332,-0.76113 -0.63433,-2.15301 0.29214,-2.78327c0.92647,-0.63008 3.73909,-0.5026 5.11845,-0.71211c1.37933,-0.20971 2.92995,-1.21315 4.37375,-1.08336c1.4438,0.1299 2.85432,1.38995 4.05358,1.85009c1.19929,0.46003 3.49248,0.97025 4.12985,1.69471c0.63738,0.72446 -0.956,1.55652 -1.11442,2.34573c-0.15838,0.78911 0.49599,2.85806 -0.44144,3.44896z" stroke="null"/>
    <path fill="#ad7fa8" stroke-width="3" stroke-linecap="round" stroke-linejoin="round" stroke-miterlimit="4" stroke-dashoffset="0" id="path5598" d="m93.781789,490.697279c-1.05253,0.8637 -4.03071,-0.02606 -5.52104,0.40917c-1.49032,0.43494 -4.08129,2.52503 -5.69077,2.27866c-1.60948,-0.24608 -2.53338,-2.3467 -3.84972,-3.06063c-1.31627,-0.71374 -3.88084,-0.80591 -4.48823,-1.8663c-0.60738,-1.06039 0.96501,-3.20114 1.30103,-4.31075c0.33606,-1.10989 -0.69457,-3.08417 0.3502,-3.98302c1.0448,-0.89903 4.10916,-0.68537 5.66031,-1.02506c1.5511,-0.33989 3.36694,-1.81525 4.99296,-1.62793c1.62599,0.18712 3.03718,2.02495 4.35927,2.71254c1.32205,0.68768 4.01092,1.29518 4.67651,2.35055c0.66559,1.05556 -1.12263,2.40952 -1.33578,3.54403c-0.21311,1.1345 0.59784,3.71483 -0.45474,4.57874z" stroke="null"/>
    <path fill="#ce5c00" stroke-width="3" stroke-linecap="round" stroke-linejoin="round" stroke-miterlimit="4" stroke-dashoffset="0" id="path5594" d="m90.439099,513.704659c-1.50242,1.09687 -5.20962,0.09351 -7.31361,0.45589c-2.17358,0.37453 -4.51967,3.41683 -6.72227,2.97213c-2.13201,-0.4306 -3.49532,-3.81935 -5.0524,-4.88417c-1.60859,-1.10025 -4.87497,-0.87964 -5.57547,-2.3551c-0.67811,-1.42806 2.21821,-3.74233 2.80012,-5.18797c0.60123,-1.49359 -0.94658,-4.0081 0.67377,-5.07342c1.56845,-1.03105 5.03011,0.40195 7.10727,0.00309c2.14589,-0.41198 4.43567,-2.88886 6.65513,-2.52214c2.14837,0.35466 3.56529,2.896 5.14004,3.91808c1.62686,1.05595 6.00905,1.36717 6.75384,2.80499c0.72087,1.39178 -3.68903,3.02145 -4.13328,4.48291c-0.45896,1.50962 1.21898,4.25227 -0.33314,5.38571l0,0z" stroke="null"/>
    <path fill="#3465a4" stroke-width="3" stroke-linecap="round" stroke-linejoin="round" stroke-miterlimit="4" stroke-dashoffset="0" d="m107.897579,506.337809c-1.24263,0.86371 -4.75875,-0.02615 -6.51825,0.40899c-1.75952,0.43513 -4.81849,2.52532 -6.71867,2.27875c-1.9002,-0.24637 -2.99099,-2.3466 -4.54508,-3.06043c-1.55402,-0.71394 -4.58179,-0.80601 -5.29891,-1.8665c-0.71707,-1.06029 1.13932,-3.20114 1.53601,-4.31084c0.39678,-1.1096 -0.81999,-3.08399 0.41349,-3.98292c1.2335,-0.89904 4.85136,-0.68537 6.68269,-1.02527c1.83125,-0.33968 3.97507,-1.81495 5.89481,-1.62763c1.91967,0.18712 3.58575,2.02475 5.14664,2.71245c1.56085,0.68768 4.7354,1.29508 5.5212,2.35055c0.78581,1.05556 -1.3254,2.40942 -1.57704,3.54402c-0.25163,1.1345 0.70579,3.71493 -0.53689,4.57883z" id="path5592" stroke="null"/>
    <path fill="#fcaf3e" stroke-width="3" stroke-linecap="round" stroke-linejoin="round" stroke-miterlimit="4" stroke-dashoffset="0" d="m120.595749,536.137159c-1.48779,0.95482 -5.75376,-0.47093 -7.80768,0.03851c-2.05401,0.50916 -6.27268,3.24245 -8.52353,2.92601c-2.25085,-0.31624 -3.38628,-2.827 -5.27816,-3.61804c-1.89183,-0.79105 -5.24766,-0.68325 -6.12751,-1.86456c-0.87989,-1.18131 1.16117,-3.94548 1.69,-5.17562c0.52882,-1.22995 -1.0068,-3.47917 0.46364,-4.49777c1.47035,-1.01813 5.93414,-0.81228 8.12326,-1.15092c2.18912,-0.33872 4.65008,-1.96047 6.9415,-1.75078c2.2914,0.21 4.53004,2.24644 6.43341,2.9899c1.90328,0.74337 5.54284,1.5679 6.55438,2.7387c1.01155,1.17088 -1.51733,2.51528 -1.76871,3.79088c-0.2514,1.27529 0.78722,4.61839 -0.70061,5.5737l0.00001,-0.00001z" id="path5590" stroke="null"/>
    <path fill="#cc0000" stroke-width="3" stroke-linecap="round" stroke-linejoin="round" stroke-miterlimit="4" stroke-dashoffset="0" d="m147.081799,551.090979c-1.78315,1.34826 -6.18279,0.11484 -8.67987,0.56031c-2.57952,0.46022 -5.36393,4.19909 -7.97788,3.65259c-2.53035,-0.52943 -4.14823,-4.69349 -5.99619,-6.00209c-1.90906,-1.35193 -5.78561,-1.08094 -6.61697,-2.89397c-0.80479,-1.75512 2.63257,-4.59891 3.32317,-6.37546c0.71347,-1.83512 -1.1234,-4.92519 0.79956,-6.23417c1.86149,-1.26749 5.9698,0.49362 8.43496,0.00367c2.54673,-0.50617 5.26423,-3.54981 7.89832,-3.09952c2.54967,0.4362 4.23132,3.55898 6.10019,4.81469c1.93076,1.2975 7.13144,1.68004 8.01536,3.44693c0.8556,1.71035 -4.37806,3.7131 -4.90527,5.50886c-0.5447,1.85529 1.44662,5.22541 -0.39538,6.61816z" id="path5586" stroke="null"/>
    <path fill="#fcaf3e" stroke-width="3" stroke-linecap="round" stroke-linejoin="round" stroke-miterlimit="4" stroke-dashoffset="0" id="path5582" d="m121.711169,574.706339c-1.73451,1.12466 -6.70777,-0.55432 -9.10236,0.04545c-2.39461,0.59987 -7.31282,3.81926 -9.93693,3.44665c-2.62409,-0.3726 -3.94782,-3.32987 -6.15333,-4.26172c-2.20558,-0.93156 -6.11787,-0.80475 -7.14362,-2.19624c-1.02572,-1.3914 1.35373,-4.64736 1.97023,-6.09627c0.61646,-1.44882 -1.17367,-4.09825 0.54052,-5.2976c1.71416,-1.19965 6.91816,-0.95703 9.47036,-1.35598c2.55209,-0.39876 5.42117,-2.30916 8.09252,-2.06201c2.6713,0.24705 5.28122,2.64576 7.50013,3.52163c2.219,0.87559 6.46197,1.8468 7.64125,3.22585c1.17927,1.37923 -1.76892,2.96278 -2.06202,4.46516c-0.29308,1.50208 0.91776,5.44033 -0.81675,6.56508z" stroke="null"/>
    <path fill="#ad7fa8" stroke-width="3" stroke-linecap="round" stroke-linejoin="round" stroke-miterlimit="4" stroke-dashoffset="0" id="path5576" d="m165.435329,586.204049c-1.64243,1.21364 -6.28949,-0.03638 -8.61502,0.57478c-2.3255,0.61116 -6.36852,3.5474 -8.8799,3.20114c-2.51144,-0.34606 -3.95316,-3.29677 -6.00709,-4.29936c-2.05392,-1.00297 -6.05567,-1.13228 -7.00347,-2.62192c-0.9478,-1.48945 1.50585,-4.4972 2.03014,-6.05574c0.52432,-1.55874 -1.08379,-4.33246 0.5465,-5.59522c1.63021,-1.26276 6.4119,-0.96291 8.83225,-1.44004c2.42035,-0.4775 5.25385,-2.54992 7.791,-2.28676c2.53728,0.26288 4.7393,2.84436 6.80221,3.81057c2.06301,0.966 6.25865,1.8192 7.29723,3.30189c1.03868,1.48279 -1.75173,3.38479 -2.08426,4.97856c-0.33254,1.59367 0.93287,5.21856 -0.70959,6.4321z" stroke="null"/>
    <path fill="#f57900" stroke-width="3" stroke-linecap="round" stroke-linejoin="round" stroke-miterlimit="4" stroke-dashoffset="0" d="m144.638019,589.885299c-2.01021,1.32993 -5.84904,1.57206 -8.70346,2.03846c-2.85441,0.46602 -7.03367,2.70222 -9.84389,2.15591c-2.81023,-0.54612 -5.3704,-3.23676 -7.41697,-4.51843c-2.04657,-1.28177 -5.7608,-2.58409 -6.627,-4.33902c-0.86619,-1.75464 1.91846,-4.45754 2.59803,-6.1895c0.6795,-1.73196 -0.10369,-5.11694 1.99243,-6.36552c2.09621,-1.24886 7.26298,-0.48107 9.98788,-1.03945c2.72487,-0.55846 5.36465,-2.49627 8.19815,-2.04289c2.8335,0.45348 5.37977,3.18078 7.41698,4.51862c2.03718,1.33775 7.3762,1.99667 8.29986,3.70721c0.92362,1.71073 -1.95108,4.52836 -2.71385,6.2361c-0.76277,1.70784 -1.17787,4.50858 -3.18815,5.83851l0,0l-0.00001,0z" id="path5574" stroke="null"/>
    <path fill="#fcc916" stroke-width="3" stroke-linecap="round" stroke-linejoin="round" stroke-miterlimit="4" stroke-dashoffset="0" d="m134.441439,516.892379c-1.46883,0.93079 -5.6804,-0.45868 -7.70811,0.03764c-2.02778,0.49622 -6.19265,3.16013 -8.4148,2.85171c-2.22216,-0.30834 -3.34309,-2.7553 -5.21085,-3.52608c-1.86767,-0.77088 -5.18071,-0.66598 -6.04936,-1.81737c-0.86865,-1.151 1.14639,-3.84511 1.66846,-5.04379c0.52207,-1.19878 -0.99395,-3.39087 0.45771,-4.38351c1.45163,-0.99245 5.85848,-0.79153 8.01968,-1.12167c2.16118,-0.33014 4.59076,-1.91079 6.85293,-1.7062c2.26219,0.2044 4.47228,2.18921 6.35135,2.91376c1.87902,0.72445 5.47214,1.52804 6.47079,2.66931c0.99866,1.14096 -1.49798,2.45129 -1.74615,3.69418c-0.2482,1.24287 0.77716,4.50124 -0.69165,5.43203l0,-0.00001z" id="path5578" stroke="null"/>
    <path fill="#ce5c00" stroke-width="3" stroke-linecap="round" stroke-linejoin="round" stroke-miterlimit="4" stroke-dashoffset="0" id="path5580" d="m60.843319,474.716259c-1.20178,0.77069 -4.16697,0.06572 -5.84989,0.3204c-1.73855,0.26298 -3.61513,2.40035 -5.37684,2.08797c-1.70536,-0.30274 -2.79575,-2.68311 -4.0412,-3.43121c-1.28664,-0.77281 -3.89928,-0.61792 -4.4596,-1.65428c-0.54238,-1.00335 1.77426,-2.62906 2.23971,-3.64458c0.48083,-1.04929 -0.75713,-2.8157 0.53887,-3.564c1.25459,-0.72445 4.02343,0.28228 5.68484,0.00194c1.71643,-0.28923 3.54791,-2.0291 5.32319,-1.77163c1.7184,0.24937 2.85172,2.0346 4.1113,2.7523c1.30125,0.74174 4.80632,0.96041 5.40205,1.97052c0.57666,0.97768 -2.95063,2.12271 -3.30597,3.14932c-0.36711,1.0603 0.97498,2.987 -0.26646,3.78325z" stroke="null"/>
    <path fill="#ce5c00" stroke-width="3" stroke-linecap="round" stroke-linejoin="round" stroke-miterlimit="4" stroke-dashoffset="0" d="m166.724429,562.227859c-1.8833,1.17234 -6.53031,0.09979 -9.16765,0.48725c-2.72465,0.40001 -5.66553,3.65152 -8.42646,3.17615c-2.67254,-0.46013 -4.38143,-4.08165 -6.33322,-5.21963c-2.01641,-1.17571 -6.11087,-0.93985 -6.98895,-2.51664c-0.85002,-1.5263 2.78056,-3.99942 3.51,-5.54426c0.75362,-1.59599 -1.18656,-4.28306 0.84452,-5.4217c1.9661,-1.10199 6.30535,0.42953 8.9091,0.00337c2.6899,-0.44035 5.56014,-3.08698 8.34228,-2.69546c2.69301,0.37927 4.46913,3.09499 6.4431,4.18713c2.03924,1.12804 7.53227,1.46098 8.46589,2.99751c0.90373,1.48733 -4.62417,3.22904 -5.18103,4.79067c-0.57531,1.61355 1.52803,4.54439 -0.41758,5.75561l0,0z" id="path5584" stroke="null"/>
    <path fill="#f57900" stroke-width="3" stroke-linecap="round" stroke-linejoin="round" stroke-miterlimit="4" stroke-dashoffset="0" id="path5588" d="m111.025499,553.646409c-1.44233,1.12225 -5.00109,0.09573 -7.02091,0.46631c-2.08654,0.38312 -4.33878,3.49529 -6.45321,3.04028c-2.04666,-0.44055 -3.3554,-3.90669 -4.85014,-4.99603c-1.54421,-1.12524 -4.67979,-0.89961 -5.35227,-2.40894c-0.65095,-1.46088 2.1294,-3.82813 2.68807,-5.30677c0.57709,-1.52766 -0.90871,-4.09969 0.64672,-5.18933c1.50567,-1.05469 4.82878,0.41092 6.82286,0.00319c2.0599,-0.42153 4.25808,-2.95496 6.38872,-2.58004c2.06238,0.36305 3.42253,2.96239 4.93424,4.00792c1.56181,1.07969 5.76851,1.39815 6.48347,2.86907c0.69211,1.42363 -3.54129,3.09055 -3.96781,4.5855c-0.44054,1.54426 1.17022,4.34963 -0.31974,5.50884z" stroke="null"/>
    <path fill="#ad7fa8" stroke-width="3" stroke-linecap="round" stroke-linejoin="round" stroke-miterlimit="4" stroke-dashoffset="0" d="m79.137079,531.775369c-1.35691,1.11366 -5.19619,-0.03339 -7.11739,0.52768c-1.92124,0.56059 -5.26134,3.25519 -7.33617,2.9375c-2.07482,-0.31779 -3.26586,-3.02512 -4.96272,-3.94558c-1.69691,-0.92026 -5.00298,-1.03887 -5.78594,-2.40585c-0.78302,-1.36699 1.24399,-4.1271 1.67721,-5.55729c0.43317,-1.43039 -0.89546,-3.97559 0.45141,-5.13442c1.34688,-1.15892 5.29731,-0.88369 7.29687,-1.32163c1.99957,-0.43822 4.3405,-2.34003 6.43659,-2.09858c2.0961,0.24127 3.9153,2.61054 5.61965,3.49703c1.70429,0.88639 5.17059,1.66943 6.02862,3.02995c0.85805,1.3607 -1.4472,3.10627 -1.72192,4.5686c-0.2748,1.46262 0.77071,4.78931 -0.58622,5.90259l0.00001,0z" id="path5596" stroke="null"/>
    <path fill="#f57900" stroke-width="3" stroke-linecap="round" stroke-linejoin="round" stroke-miterlimit="4" stroke-dashoffset="0" id="path5602" d="m85.746829,474.418739c-1.1803,0.75901 -3.4342,0.89721 -5.11018,1.16327c-1.676,0.26606 -4.12979,1.54252 -5.77984,1.23062c-1.64998,-0.31161 -3.15321,-1.84748 -4.35483,-2.57898c-1.20164,-0.7315 -3.38245,-1.47478 -3.89103,-2.47649c-0.50858,-1.00152 1.12642,-2.54414 1.52542,-3.53273c0.39899,-0.98849 -0.06086,-2.92041 1.16988,-3.633c1.23075,-0.71259 4.26442,-0.27455 5.86437,-0.59321c1.59986,-0.31895 3.1498,-1.42489 4.81347,-1.16607c1.66371,0.25893 3.15872,1.81535 4.35486,2.57889c1.19612,0.76373 4.33092,1.13962 4.87324,2.11605c0.54228,0.97624 -1.14557,2.58457 -1.59345,3.55917c-0.44785,0.9747 -0.69156,2.57329 -1.87191,3.33249l0,-0.00001z" stroke="null"/>
    <path fill="#fcaf3e" stroke-width="3" stroke-linecap="round" stroke-linejoin="round" stroke-miterlimit="4" stroke-dashoffset="0" id="path7636" d="m132.390169,498.076369c-1.08522,0.85214 -4.19683,-0.41989 -5.69505,0.03446c-1.4982,0.45434 -4.57533,2.89281 -6.21712,2.61073c-1.64186,-0.28238 -2.47002,-2.52244 -3.84998,-3.22817c-1.37997,-0.70564 -3.82777,-0.60942 -4.46957,-1.66354c-0.64172,-1.05393 0.847,-3.5199 1.23273,-4.61724c0.38573,-1.09755 -0.73432,-3.10426 0.3382,-4.01304c1.07249,-0.90849 4.3285,-0.72474 5.92527,-1.0269c1.59677,-0.30225 3.39186,-1.74904 5.06322,-1.56182c1.6714,0.18722 3.30427,2.00381 4.69257,2.66738c1.38838,0.66326 4.04305,1.39882 4.78087,2.44338c0.73784,1.04466 -1.10668,2.24401 -1.29008,3.38209c-0.18337,1.13779 0.57418,4.12073 -0.51106,4.97267z" stroke="null"/>
   </g>
   <path opacity="0.364445" fill="#323232" stroke-width="3" stroke-linecap="round" stroke-linejoin="round" stroke-miterlimit="4" stroke-dashoffset="0" filter="url(#filter4635)" d="m344.272299,498.606949a139.23142,49.68159 0 1 1 -278.46283,0a139.23142,49.68159 0 1 1 278.46283,0z" id="path4397" stroke="null"/>
   <path stroke="#fcaf3e" fill="url(#radialGradient4647)" stroke-width="8.398963" stroke-linecap="round" stroke-linejoin="round" stroke-miterlimit="4" stroke-dashoffset="0" clip-path="url(#clipPath5671)" d="m1798.653638,113.028133a61.892773,62.027512 0 1 1 -123.785552,0a61.892773,62.027512 0 1 1 123.785552,0z" id="path4639"/>
   <path fill="#fdfdfd" stroke-width="5" stroke-linecap="round" stroke-linejoin="round" stroke-miterlimit="4" stroke-dashoffset="0" filter="url(#filter5575)" clip-path="url(#clipPath5495)" id="path4984" d="m2783.975793,115.73028c-26.56253,0 -49.43028,7.6831 -59.61861,18.69527c-2.33744,-0.18987 -4.71398,-0.29472 -7.12881,-0.29466c-31.69787,0 -57.42839,17.07673 -57.42839,38.11647c0,18.41354 19.70899,33.7883 45.87611,37.3403c8.13008,19.91267 44.50421,34.94672 88.11272,34.94672c49.57883,0 89.81982,-19.42892 89.81982,-43.37078l-0.06456,-0.69717c16.06141,-5.94564 26.567,-15.77952 26.567,-26.90371l-0.23102,-2.82474c-2.79267,-17.07259 -29.54906,-30.02466 -62.05023,-30.03753c-6.28564,-14.44759 -32.52683,-24.9702 -63.85404,-24.97017l0.00001,0z" stroke="null"/>
   <path fill="#fdfdfd" stroke-width="5" stroke-linecap="round" stroke-linejoin="round" stroke-miterlimit="4" stroke-dashoffset="0" filter="url(#filter5445)" clip-path="url(#clipPath5381)" d="m2224.818303,181.9724c40.17539,0 74.76256,9.65877 90.17228,23.50264c3.53513,-0.23871 7.12992,-0.37049 10.78229,-0.37046c47.94266,0 86.85949,21.46793 86.85949,47.91788c0,23.14842 -29.8095,42.47668 -69.38683,46.94205c-12.29658,25.03318 -67.31214,43.93303 -133.26911,43.9331c-74.98716,0 -135.85109,-24.42498 -135.85109,-54.52325l0.09752,-0.87648c-24.29256,-7.47455 -40.1821,-19.83715 -40.1821,-33.82184l0.34914,-3.55114c4.22401,-21.4626 44.69282,-37.74527 93.85019,-37.76146c9.50715,-18.16264 49.19635,-31.39108 96.57823,-31.39104l-0.00001,0z" id="path5187" stroke="null"/>
   <g opacity="0.697778" fill="#009800" display="inline" id="g5828" transform="matrix(-0.11532439313156496,0,0,0.3582284970588886,227.5623664650093,977.685798862519) " stroke="null">
    <path fill="#009800" stroke-width="5" stroke-linecap="round" stroke-linejoin="round" stroke-miterlimit="4" stroke-dashoffset="0" id="path5830" d="m120.681425,-1104.532273c-12.95557,-57.30029 -65.41846,-104.14917 -110.75488,-139.77832c58.28418,5.96375 98.62011,69.92554 124.03759,117.93384c2.57276,8.9762 -2.44482,22.19775 -13.28271,21.84448z" stroke="null"/>
    <path fill="#009800" stroke-width="5" stroke-linecap="round" stroke-linejoin="round" stroke-miterlimit="4" stroke-dashoffset="0" id="path5832" d="m195.261995,-1113.209033c16.92236,-30.07348 -35.47998,-114.76941 -26.25586,-150.65979c29.29004,54.48426 47.24096,92.35596 42.01464,140.91321c-3.41674,5.67456 -10.49902,6.56763 -15.75878,9.74658z" stroke="null"/>
    <path fill="#009800" stroke-width="5" stroke-linecap="round" stroke-linejoin="round" stroke-miterlimit="4" stroke-dashoffset="0" id="path5834" d="m269.774195,-1115.573773c25.24927,-47.25073 55.25855,-94.92139 108.53833,-113.31848c-29.52759,20.45935 -63.0957,41.02404 -76.15771,76.46032c-6.84522,14.83008 -14.69605,32.87647 -32.38062,36.85816z" stroke="null"/>
    <path fill="#009800" stroke-width="5" stroke-linecap="round" stroke-linejoin="round" stroke-miterlimit="4" stroke-dashoffset="0" id="path5836" d="m378.547145,-1106.615523c20.26416,-9.15991 40.63403,-61.06738 69.03052,-84.9292c-31.30713,78.41406 -42.60352,86.36792 -69.03052,84.9292z" stroke="null"/>
    <path fill="#009800" stroke-width="5" stroke-linecap="round" stroke-linejoin="round" stroke-miterlimit="4" stroke-dashoffset="0" id="path5838" d="m235.488555,-1124.145063c12.67993,-15.09058 17.68213,-39.5105 39.27026,-44.82459c-11.71118,15.82435 -17.50708,39.77991 -39.27026,44.82459z" stroke="null"/>
    <path fill="#009800" stroke-width="5" stroke-linecap="round" stroke-linejoin="round" stroke-miterlimit="4" stroke-dashoffset="0" id="path5840" d="m156.691435,-1149.449753c-10.25024,-21.32312 -21.08765,-42.66089 -36.16528,-61.04687c42.01684,18.97143 55.64941,50.30175 36.16528,61.04687z" stroke="null"/>
    <path fill="#009800" stroke-width="5" stroke-linecap="round" stroke-linejoin="round" stroke-miterlimit="4" stroke-dashoffset="0" id="path5842" d="m350.079615,-1152.824753c18.25366,-21.31567 39.84448,-40.69556 65.95996,-51.72461c-22.99194,11.94312 -42.07739,44.86817 -65.95996,51.72461z" stroke="null"/>
   </g>
   <g opacity="0.697778" fill="#008c00" display="inline" transform="matrix(-0.15576545980149062,0,0,0.25207647211668605,856.9699958168887,1119.9902591280675) " id="g5844" stroke="null">
    <path fill="#008c00" stroke-width="5" stroke-linecap="round" stroke-linejoin="round" stroke-miterlimit="4" stroke-dashoffset="0" d="m-11286.985182,-422.73909c-12.95581,-57.30029 -65.41846,-104.14917 -110.75513,-139.77795c58.28442,5.96362 98.62036,69.92529 124.03784,117.93359c2.57276,8.97632 -2.44506,22.19763 -13.28271,21.84436z" id="path5846" stroke="null"/>
    <path fill="#008c00" stroke-width="5" stroke-linecap="round" stroke-linejoin="round" stroke-miterlimit="4" stroke-dashoffset="0" d="m-11212.404622,-431.41572c16.92237,-30.07349 -35.47998,-114.76941 -26.25585,-150.65979c29.29003,54.48425 47.24096,92.35608 42.01464,140.91308c-3.41674,5.67469 -10.49878,6.56775 -15.75879,9.74671z" id="path5848" stroke="null"/>
    <path fill="#008c00" stroke-width="5" stroke-linecap="round" stroke-linejoin="round" stroke-miterlimit="4" stroke-dashoffset="0" d="m-11137.892412,-433.78047c25.24927,-47.25073 55.25855,-94.92139 108.53833,-113.31836c-29.52759,20.45911 -63.0957,41.02393 -76.15771,76.46009c-6.84522,14.8302 -14.69605,32.87658 -32.38062,36.85827z" id="path5850" stroke="null"/>
    <path fill="#008c00" stroke-width="5" stroke-linecap="round" stroke-linejoin="round" stroke-miterlimit="4" stroke-dashoffset="0" d="m-11029.119462,-424.82222c20.26416,-9.15991 40.63403,-61.0675 69.03052,-84.9292c-31.30713,78.41407 -42.60352,86.36792 -69.03052,84.9292z" id="path5852" stroke="null"/>
    <path fill="#008c00" stroke-width="5" stroke-linecap="round" stroke-linejoin="round" stroke-miterlimit="4" stroke-dashoffset="0" d="m-11172.178052,-442.35176c12.67993,-15.09057 17.68213,-39.51062 39.27026,-44.82446c-11.71094,15.82422 -17.50708,39.77978 -39.27026,44.82446z" id="path5854" stroke="null"/>
    <path fill="#008c00" stroke-width="5" stroke-linecap="round" stroke-linejoin="round" stroke-miterlimit="4" stroke-dashoffset="0" d="m-11250.975172,-467.65644c-10.25025,-21.323 -21.08765,-42.66089 -36.16553,-61.04688c42.01709,18.97131 55.64941,50.30176 36.16553,61.04688z" id="path5856" stroke="null"/>
    <path fill="#008c00" stroke-width="5" stroke-linecap="round" stroke-linejoin="round" stroke-miterlimit="4" stroke-dashoffset="0" d="m-11057.586742,-471.03157c18.25341,-21.31555 39.84423,-40.69543 65.95971,-51.72448c-22.99194,11.94299 -42.07739,44.86804 -65.95971,51.72448z" id="path5858" stroke="null"/>
   </g>
   <g opacity="0.697778" fill="#008c00" display="inline" id="g5860" transform="matrix(0.17851371619602258,0,0,0.30923495071526946,1144.7192160717634,1124.1011855151526) " stroke="null">
    <path fill="#008c00" stroke-width="5" stroke-linecap="round" stroke-linejoin="round" stroke-miterlimit="4" stroke-dashoffset="0" id="path5862" d="m9951.137676,-24.837233c-12.95581,-57.30017 -65.41846,-104.14905 -110.75513,-139.77795c58.28443,5.96362 98.62037,69.92529 124.03785,117.93359c2.57275,8.97632 -2.44506,22.19776 -13.28271,21.84436l-0.00001,0z" stroke="null"/>
    <path fill="#008c00" stroke-width="5" stroke-linecap="round" stroke-linejoin="round" stroke-miterlimit="4" stroke-dashoffset="0" id="path5864" d="m10025.718246,-33.513863c16.92237,-30.07349 -35.47998,-114.76929 -26.25585,-150.65967c29.28979,54.48413 47.24095,92.35595 42.01463,140.91308c-3.41674,5.67456 -10.49877,6.56763 -15.75878,9.74659z" stroke="null"/>
    <path fill="#008c00" stroke-width="5" stroke-linecap="round" stroke-linejoin="round" stroke-miterlimit="4" stroke-dashoffset="0" id="path5866" d="m10100.230456,-35.878613c25.24927,-47.25073 55.25855,-94.92151 108.53832,-113.31836c-29.52757,20.45923 -63.09569,41.02393 -76.1577,76.46021c-6.84522,14.82995 -14.69605,32.87646 -32.38062,36.85815z" stroke="null"/>
    <path fill="#008c00" stroke-width="5" stroke-linecap="round" stroke-linejoin="round" stroke-miterlimit="4" stroke-dashoffset="0" id="path5868" d="m10209.003396,-26.920483c20.26416,-9.15991 40.63403,-61.06726 69.03052,-84.92908c-31.30712,78.41406 -42.60352,86.3678 -69.03052,84.92908z" stroke="null"/>
    <path fill="#008c00" stroke-width="5" stroke-linecap="round" stroke-linejoin="round" stroke-miterlimit="4" stroke-dashoffset="0" id="path5870" d="m10065.944816,-44.449903c12.67993,-15.09058 17.68212,-39.5105 39.27025,-44.82458c-11.71094,15.82434 -17.50707,39.77978 -39.27025,44.82458z" stroke="null"/>
    <path fill="#008c00" stroke-width="5" stroke-linecap="round" stroke-linejoin="round" stroke-miterlimit="4" stroke-dashoffset="0" id="path5872" d="m9987.147686,-69.754593c-10.25023,-21.323 -21.08765,-42.66089 -36.16553,-61.04687c42.01709,18.97131 55.64966,50.30175 36.16553,61.04687z" stroke="null"/>
    <path fill="#008c00" stroke-width="5" stroke-linecap="round" stroke-linejoin="round" stroke-miterlimit="4" stroke-dashoffset="0" id="path5874" d="m10180.536126,-73.129593c18.2534,-21.31579 39.84424,-40.69556 65.9597,-51.72461c-22.99194,11.943 -42.07739,44.86817 -65.9597,51.72461z" stroke="null"/>
   </g>
   <g opacity="0.697778" fill="#008c00" display="inline" id="g5876" transform="matrix(-0.10521350089328843,0,0,0.13775951491951915,1028.4973373727687,1224.7240144667257) " stroke="null">
    <path fill="#008c00" stroke-width="5" stroke-linecap="round" stroke-linejoin="round" stroke-miterlimit="4" stroke-dashoffset="0" id="path5878" d="m-16736.319997,-2209.114953c-12.95606,-57.30029 -65.41846,-104.14929 -110.75537,-139.77807c58.28466,5.96362 98.6206,69.92529 124.03808,117.93359c2.57276,8.97632 -2.44531,22.19775 -13.28271,21.84448z" stroke="null"/>
    <path fill="#008c00" stroke-width="5" stroke-linecap="round" stroke-linejoin="round" stroke-miterlimit="4" stroke-dashoffset="0" id="path5880" d="m-16661.739437,-2217.791713c16.92237,-30.07348 -35.47998,-114.76928 -26.25586,-150.65966c29.29004,54.48413 47.24073,92.35595 42.01465,140.91308c-3.41699,5.67456 -10.49902,6.56763 -15.75879,9.74658z" stroke="null"/>
    <path fill="#008c00" stroke-width="5" stroke-linecap="round" stroke-linejoin="round" stroke-miterlimit="4" stroke-dashoffset="0" id="path5882" d="m-16587.227227,-2220.156453c25.24902,-47.25073 55.2583,-94.92139 108.53809,-113.31836c-29.52735,20.45923 -63.09571,41.02392 -76.15772,76.4602c-6.84521,14.83008 -14.6958,32.87647 -32.38037,36.85816z" stroke="null"/>
    <path fill="#008c00" stroke-width="5" stroke-linecap="round" stroke-linejoin="round" stroke-miterlimit="4" stroke-dashoffset="0" id="path5884" d="m-16478.454277,-2211.198203c20.26416,-9.15991 40.63379,-61.06738 69.03027,-84.92932c-31.30713,78.41418 -42.60351,86.36804 -69.03027,84.92932z" stroke="null"/>
    <path fill="#008c00" stroke-width="5" stroke-linecap="round" stroke-linejoin="round" stroke-miterlimit="4" stroke-dashoffset="0" id="path5886" d="m-16621.512867,-2228.727743c12.67969,-15.09058 17.68213,-39.5105 39.27002,-44.82446c-11.71094,15.82421 -17.50684,39.77978 -39.27002,44.82446z" stroke="null"/>
    <path fill="#008c00" stroke-width="5" stroke-linecap="round" stroke-linejoin="round" stroke-miterlimit="4" stroke-dashoffset="0" id="path5888" d="m-16700.310237,-2254.032433c-10.25,-21.323 -21.0874,-42.66089 -36.16552,-61.04687c42.01709,18.97143 55.6499,50.30175 36.16552,61.04687z" stroke="null"/>
    <path fill="#008c00" stroke-width="5" stroke-linecap="round" stroke-linejoin="round" stroke-miterlimit="4" stroke-dashoffset="0" id="path5890" d="m-16506.922047,-2257.407433c18.2539,-21.31567 39.84472,-40.69556 65.95996,-51.72461c-22.9917,11.943 -42.07715,44.86817 -65.95996,51.72461z" stroke="null"/>
   </g>
   <g opacity="0.697778" fill="#008c00" display="inline" transform="matrix(0.09257613673703301,0,0,0.1050982047741287,1081.274660122889,1106.4321076783544) " id="g5892" stroke="null">
    <path fill="#008c00" stroke-width="5" stroke-linecap="round" stroke-linejoin="round" stroke-miterlimit="4" stroke-dashoffset="0" d="m19137.890155,-3433.276539c-12.95605,-57.30029 -65.41797,-104.14929 -110.75488,-139.7782c58.28418,5.96363 98.6206,69.92542 124.03808,117.93396c2.57227,8.97608 -2.44531,22.19751 -13.2832,21.84424z" id="path5894" stroke="null"/>
    <path fill="#008c00" stroke-width="5" stroke-linecap="round" stroke-linejoin="round" stroke-miterlimit="4" stroke-dashoffset="0" d="m19212.471215,-3441.953299c16.92236,-30.07348 -35.48047,-114.76941 -26.25586,-150.65979c29.29004,54.48413 47.24121,92.35608 42.01464,140.91321c-3.41699,5.67481 -10.49902,6.56763 -15.75878,9.74658z" id="path5896" stroke="null"/>
    <path fill="#008c00" stroke-width="5" stroke-linecap="round" stroke-linejoin="round" stroke-miterlimit="4" stroke-dashoffset="0" d="m19286.982925,-3444.318039c25.25,-47.25073 55.25879,-94.92151 108.53907,-113.31848c-29.52832,20.45923 -63.09571,41.02392 -76.15821,76.46032c-6.84472,14.83008 -14.69629,32.87647 -32.38085,36.85816l-0.00001,0z" id="path5898" stroke="null"/>
    <path fill="#008c00" stroke-width="5" stroke-linecap="round" stroke-linejoin="round" stroke-miterlimit="4" stroke-dashoffset="0" d="m19395.756365,-3435.359789c20.26416,-9.15991 40.63379,-61.06738 69.03076,-84.92908c-31.30761,78.41394 -42.604,86.3678 -69.03076,84.92908z" id="path5900" stroke="null"/>
    <path fill="#008c00" stroke-width="5" stroke-linecap="round" stroke-linejoin="round" stroke-miterlimit="4" stroke-dashoffset="0" d="m19252.697775,-3452.889329c12.67969,-15.09033 17.68164,-39.5105 39.26953,-44.82447c-11.71094,15.82447 -17.50684,39.77979 -39.26953,44.82447z" id="path5902" stroke="null"/>
    <path fill="#008c00" stroke-width="5" stroke-linecap="round" stroke-linejoin="round" stroke-miterlimit="4" stroke-dashoffset="0" d="m19173.900405,-3478.194019c-10.25048,-21.323 -21.0874,-42.66101 -36.16552,-61.047c42.01758,18.97168 55.6499,50.30213 36.16552,61.047z" id="path5904" stroke="null"/>
    <path fill="#008c00" stroke-width="5" stroke-linecap="round" stroke-linejoin="round" stroke-miterlimit="4" stroke-dashoffset="0" d="m19367.288595,-3481.569019c18.2539,-21.31543 39.84472,-40.69568 65.96045,-51.72473c-22.99268,11.94336 -42.07764,44.86828 -65.96045,51.72473z" id="path5906" stroke="null"/>
   </g>
   <g transform="matrix(0.075140894810359,0.013087055097008476,-0.0025062451289359394,0.04439444744806782,893.2664474454023,1116.1006903156715) " id="g7741" stroke="null">
    <path fill="#ce5c00" stroke-width="3" stroke-linecap="round" stroke-linejoin="round" stroke-miterlimit="4" stroke-dashoffset="0" id="path7685" d="m24059.850071,-16304.736586c-8.37158,4.67578 -29.02685,0.39844 -40.74951,1.94385c-12.11084,1.59521 -25.18311,14.56103 -37.45508,12.66553c-11.87842,-1.83545 -19.47461,-16.27588 -28.15039,-20.81446c-8.9624,-4.68798 -27.16211,-3.74804 -31.06445,-10.03515c-3.77832,-6.08692 12.35889,-15.94825 15.60107,-22.1084c3.34961,-6.36475 -5.27441,-17.08008 3.75391,-21.62012c8.73877,-4.39453 28.02685,1.7124 39.6001,0.01319c11.95605,-1.75538 24.71435,-12.30957 37.08056,-10.74756c11.97022,1.51123 19.86475,12.34179 28.63867,16.69629c9.06397,4.49902 33.48047,5.82568 37.62989,11.95263c4.01709,5.93116 -20.55371,12.87647 -23.02881,19.10401c-2.55762,6.43359 6.79199,18.12011 -1.85596,22.95019z" stroke="null"/>
    <path fill="#fcc916" stroke-width="3" stroke-linecap="round" stroke-linejoin="round" stroke-miterlimit="4" stroke-dashoffset="0" d="m24170.405741,-16370.655046c-8.54444,4.57911 -33.04444,-2.25732 -44.84082,0.18457c-11.79688,2.4419 -36.02442,15.54834 -48.95166,14.03174c-12.92676,-1.51758 -19.44776,-13.55713 -30.31348,-17.34961c-10.86523,-3.79297 -30.13819,-3.27636 -35.19141,-8.9414c-5.05322,-5.66504 6.66895,-18.92041 9.70606,-24.81836c3.03711,-5.89844 -5.78223,-16.68457 2.66211,-21.56836c8.44531,-4.8833 34.08154,-3.89551 46.65429,-5.51953c12.57227,-1.62402 26.70557,-9.40039 39.86621,-8.39502c13.15918,1.00635 26.01612,10.77148 36.94776,14.33691c10.93115,3.56494 31.83301,7.51953 37.64258,13.13379c5.80908,5.61377 -8.71387,12.06104 -10.15723,18.17774c-1.44434,6.11523 4.52051,22.14794 -4.02441,26.72753z" id="path7689" stroke="null"/>
    <path fill="#ad7fa8" stroke-width="3" stroke-linecap="round" stroke-linejoin="round" stroke-miterlimit="4" stroke-dashoffset="0" d="m23774.026341,-16206.388446c-9.59424,6.69385 -36.73974,-0.20166 -50.32422,3.16993c-13.58398,3.37158 -37.20019,19.56884 -51.87011,17.65918c-14.67041,-1.90967 -23.0918,-18.18604 -35.08936,-23.71778c-11.99805,-5.53173 -35.37353,-6.2456 -40.90967,-14.4624c-5.53613,-8.21777 8.7959,-24.80859 11.85889,-33.40674c3.0625,-8.59912 -6.33154,-23.89892 3.19189,-30.86523c9.52295,-6.96582 37.45459,-5.31104 51.59229,-7.94482c14.13818,-2.63282 30.68994,-14.06446 45.51025,-12.61426c14.8208,1.45068 27.6836,15.69238 39.73389,21.02148c12.05029,5.3291 36.55908,10.03565 42.62598,18.21485c6.0664,8.17871 -10.23291,18.67187 -12.1753,27.46386c-1.94287,8.79102 5.44922,28.7876 -4.14453,35.48194l0,-0.00001z" id="path7691" stroke="null"/>
    <path fill="#f57900" stroke-width="3" stroke-linecap="round" stroke-linejoin="round" stroke-miterlimit="4" stroke-dashoffset="0" id="path7687" d="m23973.186501,-16150.021746c-10.7583,5.88233 -31.30322,6.95362 -46.57959,9.01612c-15.27588,2.06152 -37.64209,11.95117 -52.68164,9.53564c-15.03955,-2.41601 -28.74073,-14.3164 -39.69385,-19.98535c-10.95264,-5.66895 -30.83008,-11.4292 -35.46582,-19.19043c-4.63574,-7.76172 10.26709,-19.71582 13.90381,-27.37598c3.63623,-7.66113 -0.55518,-22.63183 10.66308,-28.15527c11.21827,-5.52295 38.86963,-2.12695 53.45264,-4.59668c14.58301,-2.4707 28.70996,-11.04199 43.87451,-9.03613c15.16407,2.00635 28.79102,14.06836 39.69336,19.98584c10.90283,5.91748 39.47559,8.83105 44.41895,16.39697c4.94336,7.56543 -10.44141,20.0293 -14.52344,27.58154c-4.08252,7.55323 -6.3042,19.94092 -17.06201,25.82373z" stroke="null"/>
    <path fill="#ce5c00" stroke-width="3" stroke-linecap="round" stroke-linejoin="round" stroke-miterlimit="4" stroke-dashoffset="0" d="m23812.249001,-15890.717056c-13.69483,8.50195 -47.48486,0.72559 -66.6626,3.53418c-19.81152,2.90186 -41.19629,26.47949 -61.27246,23.03223c-19.43311,-3.3374 -31.85938,-29.59717 -46.05176,-37.84961c-14.66211,-8.52539 -44.43408,-6.81592 -50.81933,-18.24951c-6.18067,-11.06836 20.21826,-29.00147 25.52294,-40.20459c5.4795,-11.57373 -8.62793,-31.05908 6.14063,-39.31446c14.2959,-7.99121 45.84863,3.11426 64.78223,0.02344c19.55859,-3.19238 40.43017,-22.38574 60.66015,-19.54492c19.58203,2.74902 32.49658,22.44336 46.8501,30.36182c14.8291,8.18115 54.77148,10.59423 61.56006,21.73681c6.57129,10.78516 -33.62402,23.41504 -37.67383,34.73975c-4.1831,11.69971 11.11084,32.95166 -3.03613,41.73486z" id="path7693" stroke="null"/>
    <path fill="#3465a4" stroke-width="3" stroke-linecap="round" stroke-linejoin="round" stroke-miterlimit="4" stroke-dashoffset="0" id="path7695" d="m24019.866671,-16012.454356c-11.32666,6.69433 -43.375,-0.20069 -59.41259,3.1709c-16.03809,3.37109 -43.92041,19.56787 -61.23975,17.6582c-17.31982,-1.90918 -27.2627,-18.18555 -41.42725,-23.71777c-14.16504,-5.53125 -41.76269,-6.24512 -48.29882,-14.4629c-6.53663,-8.21679 10.38476,-24.80761 14.00048,-33.40625c3.61573,-8.59863 -7.47461,-23.89843 3.76856,-30.86425c11.24267,-6.96729 44.21973,-5.31202 60.91113,-7.94532c16.6919,-2.63281 36.23291,-14.06543 53.73047,-12.61425c17.49805,1.45019 32.68408,15.6914 46.91065,21.0205c14.22753,5.32911 43.16259,10.03614 50.32519,18.21534c7.16309,8.17919 -12.08105,18.67138 -14.37451,27.46337c-2.29297,8.792 6.43359,28.78809 -4.89356,35.48243z" stroke="null"/>
    <path fill="#fcaf3e" stroke-width="3" stroke-linecap="round" stroke-linejoin="round" stroke-miterlimit="4" stroke-dashoffset="0" id="path7697" d="m24212.379371,-15914.870376c-13.56104,7.40039 -52.44385,-3.64746 -71.16553,0.29932c-18.72217,3.94677 -57.17383,25.12695 -77.68994,22.67529c-20.51709,-2.45166 -30.86572,-21.9082 -48.10986,-28.0376c-17.24414,-6.12939 -47.83203,-5.29492 -55.85205,-14.44922c-8.01905,-9.15429 10.58398,-30.5747 15.40429,-40.10693c4.82032,-9.53125 -9.17627,-26.9624 4.22608,-34.854c13.40234,-7.89209 54.08935,-6.29541 74.04297,-8.91993c19.95312,-2.62402 42.38476,-15.19189 63.27051,-13.5664c20.88574,1.62597 41.29052,17.40674 58.63867,23.16845c17.34912,5.76075 50.52246,12.15137 59.74219,21.22364c9.22021,9.07324 -13.82911,19.49219 -16.12061,29.37597c-2.2915,9.88233 7.17481,35.792 -6.38672,43.19141z" stroke="null"/>
    <path fill="#cc0000" stroke-width="3" stroke-linecap="round" stroke-linejoin="round" stroke-miterlimit="4" stroke-dashoffset="0" id="path7699" d="m24498.243141,-15928.286386c-16.25293,10.44775 -56.35547,0.8916 -79.11523,4.34326c-23.5127,3.56592 -48.8921,32.53857 -72.71827,28.30322c-23.06298,-4.10058 -37.81054,-36.3706 -54.65429,-46.51172c-17.40088,-10.47656 -52.73438,-8.37598 -60.31202,-22.42578c-7.33545,-13.60156 23.99463,-35.63867 30.29053,-49.40576c6.50293,-14.22217 -10.23975,-38.16651 7.2876,-48.31201c16.96631,-9.82032 54.41308,3.82714 76.8833,0.02929c23.2124,-3.92285 47.98291,-27.50927 71.9917,-24.01855c23.24023,3.3789 38.56689,27.57959 55.60156,37.31103c17.59961,10.05323 65.00293,13.01856 73.05957,26.71143c7.79883,13.25293 -39.90527,28.77393 -44.71142,42.69043c-4.96436,14.37695 13.18652,40.49219 -3.60303,51.28516z" stroke="null"/>
    <path fill="#fcaf3e" stroke-width="3" stroke-linecap="round" stroke-linejoin="round" stroke-miterlimit="4" stroke-dashoffset="0" d="m24262.953591,-15636.186296c-15.81006,8.71631 -61.14063,-4.29638 -82.9668,0.35206c-21.82617,4.64843 -66.65527,29.59667 -90.57324,26.70947c-23.91846,-2.88819 -35.98389,-25.80567 -56.08692,-33.02588c-20.10351,-7.21973 -55.76367,-6.23584 -65.11328,-17.01856c-9.34912,-10.78369 12.33887,-36.01464 17.9585,-47.24169c5.61914,-11.22706 -10.69775,-31.75928 4.92676,-41.05518c15.62451,-9.29492 63.0581,-7.41504 86.3208,-10.50586c23.26221,-3.0918 49.41308,-17.89453 73.76221,-15.98047c24.34863,1.91553 48.13769,20.50391 68.36279,27.29004c20.22558,6.78613 58.89941,14.3125 69.64844,25c10.74902,10.68652 -16.12354,22.95898 -18.79493,34.60059c-2.67138,11.64062 8.36524,42.15869 -7.44433,50.87548z" id="path7701" stroke="null"/>
    <path fill="#ad7fa8" stroke-width="3" stroke-linecap="round" stroke-linejoin="round" stroke-miterlimit="4" stroke-dashoffset="0" d="m24798.873021,-15728.913836c-14.96972,9.40381 -57.32812,-0.28222 -78.52441,4.4546c-21.19727,4.73584 -58.04785,27.48925 -80.93946,24.80712c-22.89111,-2.6831 -36.03173,-25.54785 -54.75341,-33.31884c-18.72119,-7.77051 -55.19678,-8.77344 -63.83545,-20.31739c-8.63867,-11.54297 13.7251,-34.84961 18.50439,-46.9292c4.7793,-12.07861 -9.8789,-33.57177 4.98096,-43.35791c14.85986,-9.78613 58.44385,-7.46093 80.50537,-11.16113c22.06104,-3.69873 47.88721,-19.75781 71.01416,-17.71973c23.12598,2.0376 43.19727,22.04395 62.00098,29.5293c18.80273,7.48584 57.04687,14.09815 66.51269,25.58887c9.4668,11.48926 -15.96679,26.22949 -18.99804,38.58008c-3.03125,12.35107 8.50293,40.4414 -6.46778,49.84423z" id="path7703" stroke="null"/>
    <path fill="#f57900" stroke-width="3" stroke-linecap="round" stroke-linejoin="round" stroke-miterlimit="4" stroke-dashoffset="0" id="path7705" d="m24601.228001,-15599.371356c-18.32324,10.30616 -53.31347,12.18262 -79.33154,15.7959c-26.01709,3.6128 -64.11035,20.94141 -89.7251,16.70801c-25.61475,-4.23242 -48.95019,-25.0835 -67.60449,-35.01611c-18.65381,-9.93213 -52.5083,-20.02442 -60.40381,-33.62256c-7.89502,-13.59961 17.48633,-34.54395 23.68018,-47.96582c6.19384,-13.42285 -0.94483,-39.65235 18.16064,-49.3291c19.10645,-9.67676 66.20117,-3.72705 91.03809,-8.05518c24.8374,-4.32764 48.89795,-19.34521 74.72509,-15.83056c25.82666,3.51464 49.03565,24.64843 67.60401,35.0166c18.56933,10.36767 67.23291,15.47217 75.65234,28.72851c8.41895,13.25635 -17.78369,35.0918 -24.73633,48.32618c-6.95263,13.2329 -10.73632,34.9375 -29.05908,45.24414l0,-0.00001z" stroke="null"/>
    <path fill="#fcc916" stroke-width="3" stroke-linecap="round" stroke-linejoin="round" stroke-miterlimit="4" stroke-dashoffset="0" id="path7707" d="m24241.606911,-16208.797616c-13.38819,6.99902 -51.77588,-3.44971 -70.2583,0.2832c-18.48291,3.73242 -56.44532,23.76514 -76.69971,21.44629c-20.25439,-2.31934 -30.47168,-20.72022 -47.49609,-26.51807c-17.02344,-5.79687 -47.22119,-5.00732 -55.13868,-13.66504c-7.91748,-8.65771 10.44873,-28.91797 15.20752,-37.93262c4.75879,-9.01464 -9.05957,-25.5 4.17237,-32.96484c13.23095,-7.46387 53.39892,-5.95312 73.09765,-8.43555c19.69873,-2.48242 41.84424,-14.36914 62.46338,-12.83154c20.61963,1.5376 40.76416,16.46338 57.8916,21.9126c17.12696,5.44824 49.87793,11.49267 58.98047,20.07324c9.10205,8.58106 -13.65381,18.43506 -15.91601,27.78223c-2.26221,9.34765 7.08349,33.85156 -6.3042,40.8501z" stroke="null"/>
    <path fill="#ce5c00" stroke-width="3" stroke-linecap="round" stroke-linejoin="round" stroke-miterlimit="4" stroke-dashoffset="0" d="m23720.274391,-16398.921156c-10.9541,5.97266 -37.98145,0.50977 -53.3208,2.48242c-15.84668,2.03858 -32.95166,18.60108 -49.00928,16.17969c-15.54394,-2.34375 -25.48291,-20.7915 -36.83496,-26.58887c-11.72754,-5.98828 -35.54102,-4.78808 -40.64844,-12.81982c-4.94385,-7.7749 16.17237,-20.37354 20.41455,-28.24317c4.38282,-8.13085 -6.90088,-21.81884 4.91162,-27.61865c11.43555,-5.61328 36.67334,2.1875 51.8169,0.0166c15.64453,-2.24218 32.33838,-15.72558 48.51953,-13.72998c15.66309,1.93165 25.99316,15.76563 37.47412,21.32911c11.86084,5.74756 43.80908,7.44287 49.23877,15.27002c5.25635,7.57666 -26.89453,16.44922 -30.1333,24.40429c-3.34619,8.21875 8.88672,23.14795 -2.42871,29.31836z" id="path7709" stroke="null"/>
    <path fill="#ce5c00" stroke-width="3" stroke-linecap="round" stroke-linejoin="round" stroke-miterlimit="4" stroke-dashoffset="0" id="path7711" d="m24451.008761,-15793.349376c-17.16601,7.7622 -59.52295,0.6626 -83.56201,3.22705c-24.83447,2.64892 -51.64062,24.17529 -76.80566,21.02832c-24.35987,-3.04639 -39.93604,-27.02295 -57.72657,-34.55664c-18.3789,-7.78418 -55.6997,-6.22363 -63.70312,-16.66309c-7.74756,-10.10498 25.34424,-26.47802 31.99316,-36.70703c6.86866,-10.5664 -10.81543,-28.35742 7.69825,-35.89502c17.91992,-7.2959 57.47168,2.84326 81.2041,0.02149c24.51806,-2.91504 50.68017,-20.43799 76.03857,-17.84522c24.54688,2.51074 40.73584,20.49121 58.72803,27.72217c18.58789,7.46875 68.65576,9.67187 77.16553,19.84521c8.2373,9.84766 -42.14844,21.37842 -47.22413,31.71875c-5.24414,10.68164 13.92774,30.08496 -3.80615,38.10401z" stroke="null"/>
    <path fill="#f57900" stroke-width="3" stroke-linecap="round" stroke-linejoin="round" stroke-miterlimit="4" stroke-dashoffset="0" d="m24052.417451,-15807.468026c-13.14599,8.69628 -45.58398,0.74121 -63.99365,3.61425c-19.01904,2.96875 -39.54736,27.08496 -58.81982,23.55908c-18.65527,-3.41308 -30.58399,-30.27441 -44.2085,-38.71533c-14.07519,-8.7207 -42.65576,-6.97168 -48.78564,-18.66797c-5.93311,-11.3208 19.40967,-29.66455 24.50146,-41.12304c5.26075,-11.83887 -8.28271,-31.77051 5.89551,-40.21485c13.72363,-8.1748 44.01318,3.18457 62.18848,0.02344c18.77636,-3.26562 38.81201,-22.89795 58.23242,-19.99219c18.79785,2.8125 31.19629,22.95703 44.9751,31.05713c14.23486,8.36817 52.5791,10.83643 59.0957,22.23389c6.30811,11.03271 -32.27881,23.95117 -36.16602,35.53515c-4.01562,11.96778 10.66651,33.70606 -2.91503,42.69043l-0.00001,0.00001z" id="path7713" stroke="null"/>
    <path fill="#ad7fa8" stroke-width="3" stroke-linecap="round" stroke-linejoin="round" stroke-miterlimit="4" stroke-dashoffset="0" id="path7715" d="m24312.788551,-16057.077406c-13.74463,8.41065 -52.6333,-0.25244 -72.09424,3.9834c-19.46094,4.23633 -53.29492,24.58496 -74.31103,22.18603c-21.01661,-2.39843 -33.08155,-22.84814 -50.26953,-29.79834c-17.18848,-6.94922 -50.67676,-7.84668 -58.6084,-18.16992c-7.93115,-10.32422 12.60156,-31.16846 16.98925,-41.9707c4.3877,-10.80322 -9.06982,-30.02539 4.57325,-38.77735c13.64209,-8.75244 53.65771,-6.67334 73.91211,-9.98193c20.25439,-3.30811 43.96631,-17.6709 65.19873,-15.84815c21.23291,1.82325 39.66015,19.71485 56.92382,26.40967c17.26368,6.69532 52.37452,12.60938 61.06592,22.88526c8.69238,10.27539 -14.65918,23.45752 -17.44189,34.5039c-2.78272,11.04541 7.80664,36.16797 -5.93799,44.57813z" stroke="null"/>
    <path fill="#f57900" stroke-width="3" stroke-linecap="round" stroke-linejoin="round" stroke-miterlimit="4" stroke-dashoffset="0" d="m23834.129371,-16308.293226c-10.7583,5.88232 -31.30322,6.95312 -46.57959,9.01562c-15.27588,2.06153 -37.64209,11.95215 -52.68164,9.53614c-15.03955,-2.41553 -28.74073,-14.3169 -39.69385,-19.98584c-10.95264,-5.66846 -30.83008,-11.4292 -35.46582,-19.19043c-4.63574,-7.76172 10.26709,-19.71485 13.90381,-27.37647c3.63623,-7.66064 -0.55518,-22.63135 10.66308,-28.15381c11.21827,-5.52392 38.86963,-2.12744 53.45264,-4.59814c14.58301,-2.46973 28.70996,-11.04102 43.87451,-9.03516c15.16407,2.00586 28.79102,14.06836 39.69336,19.98535c10.90283,5.91797 39.47559,8.83106 44.41895,16.39747c4.94336,7.56591 -10.44141,20.0288 -14.52344,27.58154c-4.08252,7.55322 -6.3042,19.94092 -17.06201,25.82373z" id="path7717" stroke="null"/>
    <path fill="#fcaf3e" stroke-width="3" stroke-linecap="round" stroke-linejoin="round" stroke-miterlimit="4" stroke-dashoffset="0" d="m23802.686501,-16084.554946c-9.8916,6.60205 -38.25391,-3.25488 -51.90918,0.2666c-13.65625,3.521 -41.7041,22.41797 -56.66895,20.23047c-14.96484,-2.1875 -22.51367,-19.5459 -35.09179,-25.01514c-12.57764,-5.46875 -34.88916,-4.72314 -40.73877,-12.89013c-5.8501,-8.16797 7.72021,-27.2793 11.23584,-35.78321c3.51611,-8.50341 -6.69336,-24.05566 3.08252,-31.09668c9.77588,-7.04101 39.45361,-5.61621 54.00781,-7.958c14.5542,-2.34131 30.91602,-13.55371 46.15039,-12.10352c15.23438,1.4502 30.11816,15.53027 42.77246,20.66992c12.6543,5.13965 36.85156,10.8418 43.57666,18.93604c6.72559,8.09472 -10.08789,17.39013 -11.75928,26.20801c-1.67138,8.81738 5.23389,31.9331 -4.65771,38.53564z" id="path7719" stroke="null"/>
   </g>
   <path opacity="0.698" fill="#1e9e00" stroke-width="3" stroke-linecap="round" stroke-linejoin="round" stroke-miterlimit="4" stroke-dashoffset="0" id="path7788" d="m2977.571923,693.03313c0.8338,0.20377 1.04232,0.67133 1.74242,1.37074c0.91107,1.20018 2.75632,4.79486 2.54881,5.38253c-0.27521,1.05879 -2.59341,-4.94078 -4.29123,-6.75327zm15.65413,2.61729c-1.97883,4.32537 -2.16515,4.64962 -3.70862,4.5868c0.32776,-0.79814 1.26886,-1.44815 1.92915,-2.20662c0.70377,-0.80846 1.0864,-2.32044 1.77947,-2.38018zm-6.95621,0.15778c2.25252,2.82618 2.49292,3.84396 2.11355,4.16218c-0.6935,0.30732 -0.54209,-0.49458 -2.11355,-4.16218zm-4.21394,0.60615c0.55449,-0.10852 0.95861,0.87032 1.17915,1.67101c0.56264,2.04426 0.56906,1.74924 0.18948,1.92237c-0.52294,0.23894 -0.51968,-1.84695 -1.36864,-3.59338l0.00001,0zm-3.72971,-0.1879c0.58027,0.02002 0.88226,0.84813 1.28912,1.61254c0.4088,1.4575 1.59854,2.36305 0.75946,2.41825c-0.83419,0.0551 -1.4113,-2.30071 -2.04858,-4.03079zm6.22058,0.56074c1.83029,2.3436 2.22188,3.06251 1.48675,3.15931c-0.47417,0.06229 -0.51133,-0.51032 -1.0525,-1.47328c-0.34862,-0.62019 -0.78308,-1.16365 -0.43425,-1.68603l0,0z" stroke="null"/>
   <g fill="#009800" display="inline" transform="matrix(0.21137203073443758,0,0,0.31740067353300044,297.7205481873443,986.5132227160174) " id="g5811" stroke="null">
    <path fill="#009800" stroke-width="5" stroke-linecap="round" stroke-linejoin="round" stroke-miterlimit="4" stroke-dashoffset="0" d="m18.729253,-1469.137817c-12.95605,-57.3003 -65.41821,-104.14942 -110.75512,-139.77832c58.28466,5.96386 98.62036,69.92529 124.03784,117.93383c2.57275,8.97632 -2.44507,22.19751 -13.28272,21.84449z" id="svg_1" stroke="null"/>
    <path fill="#009800" stroke-width="5" stroke-linecap="round" stroke-linejoin="round" stroke-miterlimit="4" stroke-dashoffset="0" d="m93.309943,-1477.814577c16.92236,-30.07349 -35.4801,-114.76953 -26.25586,-150.65991c29.2898,54.48413 47.24097,92.3562 42.0144,140.91333c-3.4165,5.67456 -10.49877,6.56738 -15.75854,9.74658z" id="svg_11" stroke="null"/>
    <path fill="#009800" stroke-width="5" stroke-linecap="round" stroke-linejoin="round" stroke-miterlimit="4" stroke-dashoffset="0" d="m167.822153,-1480.179327c25.24927,-47.25073 55.25854,-94.92139 108.53833,-113.3186c-29.52759,20.45923 -63.09571,41.02417 -76.15772,76.4602c-6.84521,14.83032 -14.69604,32.87647 -32.38061,36.8584z" id="svg_13" stroke="null"/>
    <path fill="#009800" stroke-width="5" stroke-linecap="round" stroke-linejoin="round" stroke-miterlimit="4" stroke-dashoffset="0" d="m276.595103,-1471.221077c20.26416,-9.15991 40.63403,-61.06738 69.03051,-84.9292c-31.30712,78.41382 -42.60351,86.36768 -69.03051,84.9292z" id="svg_14" stroke="null"/>
    <path fill="#009800" stroke-width="5" stroke-linecap="round" stroke-linejoin="round" stroke-miterlimit="4" stroke-dashoffset="0" d="m133.536503,-1488.750617c12.67994,-15.09057 17.68213,-39.51074 39.27027,-44.82446c-11.71094,15.82422 -17.50708,39.77954 -39.27027,44.82446z" id="svg_15" stroke="null"/>
    <path fill="#009800" stroke-width="5" stroke-linecap="round" stroke-linejoin="round" stroke-miterlimit="4" stroke-dashoffset="0" d="m54.739023,-1514.055297c-10.25,-21.32325 -21.08741,-42.66114 -36.16529,-61.04712c42.01722,18.97168 55.64954,50.302 36.16529,61.04712z" id="svg_16" stroke="null"/>
    <path fill="#009800" stroke-width="5" stroke-linecap="round" stroke-linejoin="round" stroke-miterlimit="4" stroke-dashoffset="0" d="m248.127813,-1517.430297c18.25342,-21.31568 39.84424,-40.69581 65.95972,-51.72461c-22.99194,11.94311 -42.07739,44.86816 -65.95972,51.72461z" id="svg_17" stroke="null"/>
   </g>
   <g fill="#009800" display="inline" transform="matrix(0.21137203073443758,0,0,0.31740067353300044,297.7205481873443,986.5132227160174) " id="svg_34" stroke="null">
    <path fill="#009800" stroke-width="5" stroke-linecap="round" stroke-linejoin="round" stroke-miterlimit="4" stroke-dashoffset="0" d="m18.729253,-1469.137817c-12.95605,-57.3003 -65.41821,-104.14942 -110.75512,-139.77832c58.28466,5.96386 98.62036,69.92529 124.03784,117.93383c2.57275,8.97632 -2.44507,22.19751 -13.28272,21.84449z" id="svg_27" stroke="null"/>
    <path fill="#009800" stroke-width="5" stroke-linecap="round" stroke-linejoin="round" stroke-miterlimit="4" stroke-dashoffset="0" d="m93.309943,-1477.814577c16.92236,-30.07349 -35.4801,-114.76953 -26.25586,-150.65991c29.2898,54.48413 47.24097,92.3562 42.0144,140.91333c-3.4165,5.67456 -10.49877,6.56738 -15.75854,9.74658z" id="svg_28" stroke="null"/>
    <path fill="#009800" stroke-width="5" stroke-linecap="round" stroke-linejoin="round" stroke-miterlimit="4" stroke-dashoffset="0" d="m167.822153,-1480.179327c25.24927,-47.25073 55.25854,-94.92139 108.53833,-113.3186c-29.52759,20.45923 -63.09571,41.02417 -76.15772,76.4602c-6.84521,14.83032 -14.69604,32.87647 -32.38061,36.8584z" id="svg_29" stroke="null"/>
    <path fill="#009800" stroke-width="5" stroke-linecap="round" stroke-linejoin="round" stroke-miterlimit="4" stroke-dashoffset="0" d="m276.595103,-1471.221077c20.26416,-9.15991 40.63403,-61.06738 69.03051,-84.9292c-31.30712,78.41382 -42.60351,86.36768 -69.03051,84.9292z" id="svg_30" stroke="null"/>
    <path fill="#009800" stroke-width="5" stroke-linecap="round" stroke-linejoin="round" stroke-miterlimit="4" stroke-dashoffset="0" d="m133.536503,-1488.750617c12.67994,-15.09057 17.68213,-39.51074 39.27027,-44.82446c-11.71094,15.82422 -17.50708,39.77954 -39.27027,44.82446z" id="svg_31" stroke="null"/>
    <path fill="#009800" stroke-width="5" stroke-linecap="round" stroke-linejoin="round" stroke-miterlimit="4" stroke-dashoffset="0" d="m54.739023,-1514.055297c-10.25,-21.32325 -21.08741,-42.66114 -36.16529,-61.04712c42.01722,18.97168 55.64954,50.302 36.16529,61.04712z" id="svg_32" stroke="null"/>
    <path fill="#009800" stroke-width="5" stroke-linecap="round" stroke-linejoin="round" stroke-miterlimit="4" stroke-dashoffset="0" d="m248.127813,-1517.430297c18.25342,-21.31568 39.84424,-40.69581 65.95972,-51.72461c-22.99194,11.94311 -42.07739,44.86816 -65.95972,51.72461z" id="svg_33" stroke="null"/>
   </g>
   <g fill="#009800" display="inline" transform="matrix(0.21137203073443758,0,0,0.31740067353300044,297.7205481873443,986.5132227160174) " id="svg_26" stroke="null">
    <path fill="#009800" stroke-width="5" stroke-linecap="round" stroke-linejoin="round" stroke-miterlimit="4" stroke-dashoffset="0" d="m-651.89049,1286.848132c-12.95605,-57.3003 -65.41821,-104.14942 -110.75512,-139.77832c58.28466,5.96386 98.62036,69.92529 124.03784,117.93383c2.57275,8.97632 -2.44507,22.19751 -13.28272,21.84449z" id="svg_51" stroke="null"/>
    <path fill="#009800" stroke-width="5" stroke-linecap="round" stroke-linejoin="round" stroke-miterlimit="4" stroke-dashoffset="0" d="m-577.3098,1278.171372c16.92237,-30.07349 -35.4801,-114.76953 -26.25586,-150.65991c29.28981,54.48413 47.24097,92.3562 42.01441,140.91333c-3.41651,5.67456 -10.49878,6.56738 -15.75855,9.74658z" id="svg_52" stroke="null"/>
    <path fill="#009800" stroke-width="5" stroke-linecap="round" stroke-linejoin="round" stroke-miterlimit="4" stroke-dashoffset="0" d="m-502.79759,1275.806622c25.24927,-47.25073 55.25854,-94.92139 108.53833,-113.3186c-29.52759,20.45923 -63.09571,41.02417 -76.15772,76.4602c-6.84521,14.83032 -14.69604,32.87647 -32.38061,36.8584z" id="svg_53" stroke="null"/>
    <path fill="#009800" stroke-width="5" stroke-linecap="round" stroke-linejoin="round" stroke-miterlimit="4" stroke-dashoffset="0" d="m-394.02464,1284.764872c20.26417,-9.15991 40.63403,-61.06738 69.03051,-84.9292c-31.30712,78.41382 -42.6035,86.36768 -69.03051,84.9292z" id="svg_54" stroke="null"/>
    <path fill="#009800" stroke-width="5" stroke-linecap="round" stroke-linejoin="round" stroke-miterlimit="4" stroke-dashoffset="0" d="m-537.08323,1267.235332c12.67994,-15.09057 17.68213,-39.51074 39.27027,-44.82446c-11.71095,15.82422 -17.50708,39.77954 -39.27027,44.82446z" id="svg_55" stroke="null"/>
    <path fill="#009800" stroke-width="5" stroke-linecap="round" stroke-linejoin="round" stroke-miterlimit="4" stroke-dashoffset="0" d="m-615.88072,1241.930652c-10.25,-21.32325 -21.0874,-42.66114 -36.16529,-61.04712c42.01722,18.97168 55.64954,50.302 36.16529,61.04712z" id="svg_56" stroke="null"/>
    <path fill="#009800" stroke-width="5" stroke-linecap="round" stroke-linejoin="round" stroke-miterlimit="4" stroke-dashoffset="0" d="m-422.49192,1238.555652c18.25342,-21.31568 39.84424,-40.69581 65.95972,-51.72461c-22.99194,11.94311 -42.07739,44.86816 -65.95972,51.72461z" id="svg_57" stroke="null"/>
   </g>
   <g fill="#009800" display="inline" transform="matrix(0.21137203073443758,0,0,0.31740067353300044,297.7205481873443,986.5132227160174) " id="svg_42" stroke="null">
    <path fill="#009800" stroke-width="5" stroke-linecap="round" stroke-linejoin="round" stroke-miterlimit="4" stroke-dashoffset="0" d="m-651.89049,1286.848132c-12.95606,-57.3003 -65.41822,-104.14942 -110.75513,-139.77832c58.28466,5.96386 98.62036,69.92529 124.03784,117.93383c2.57275,8.97632 -2.44507,22.19751 -13.28272,21.84449l0.00001,0z" id="svg_59" stroke="null"/>
    <path fill="#009800" stroke-width="5" stroke-linecap="round" stroke-linejoin="round" stroke-miterlimit="4" stroke-dashoffset="0" d="m-577.3098,1278.171372c16.92236,-30.07349 -35.4801,-114.76953 -26.25586,-150.65991c29.2898,54.48413 47.24096,92.3562 42.0144,140.91333c-3.4165,5.67456 -10.49877,6.56738 -15.75854,9.74658z" id="svg_60" stroke="null"/>
    <path fill="#009800" stroke-width="5" stroke-linecap="round" stroke-linejoin="round" stroke-miterlimit="4" stroke-dashoffset="0" d="m-502.7976,1275.806622c25.24928,-47.25073 55.25854,-94.92139 108.53833,-113.3186c-29.52759,20.45923 -63.09571,41.02417 -76.15772,76.4602c-6.84521,14.83032 -14.69604,32.87647 -32.38061,36.8584z" id="svg_61" stroke="null"/>
    <path fill="#009800" stroke-width="5" stroke-linecap="round" stroke-linejoin="round" stroke-miterlimit="4" stroke-dashoffset="0" d="m-394.02464,1284.764872c20.26416,-9.15991 40.63403,-61.06738 69.03051,-84.9292c-31.30712,78.41382 -42.60351,86.36768 -69.03051,84.9292z" id="svg_62" stroke="null"/>
    <path fill="#009800" stroke-width="5" stroke-linecap="round" stroke-linejoin="round" stroke-miterlimit="4" stroke-dashoffset="0" d="m-537.08325,1267.235332c12.67994,-15.09057 17.68213,-39.51074 39.27027,-44.82446c-11.71094,15.82422 -17.50708,39.77954 -39.27027,44.82446z" id="svg_63" stroke="null"/>
    <path fill="#009800" stroke-width="5" stroke-linecap="round" stroke-linejoin="round" stroke-miterlimit="4" stroke-dashoffset="0" d="m-615.88072,1241.930652c-10.25,-21.32325 -21.08741,-42.66114 -36.1653,-61.04712c42.01722,18.97168 55.64954,50.302 36.1653,61.04712z" id="svg_64" stroke="null"/>
    <path fill="#009800" stroke-width="5" stroke-linecap="round" stroke-linejoin="round" stroke-miterlimit="4" stroke-dashoffset="0" d="m-422.49194,1238.555652c18.25342,-21.31568 39.84424,-40.69581 65.95972,-51.72461c-22.99194,11.94311 -42.07738,44.86816 -65.95972,51.72461z" id="svg_65" stroke="null"/>
   </g>
   <g fill="#009800" display="inline" transform="matrix(0.21137203073443758,0,0,0.31740067353300044,297.7205481873443,986.5132227160174) " id="svg_50" stroke="null">
    <path fill="#009800" stroke-width="5" stroke-linecap="round" stroke-linejoin="round" stroke-miterlimit="4" stroke-dashoffset="0" d="m-651.89049,1286.848132c-12.95605,-57.3003 -65.41821,-104.14942 -110.75512,-139.77832c58.28466,5.96386 98.62036,69.92529 124.03784,117.93383c2.57275,8.97632 -2.44507,22.19751 -13.28272,21.84449z" id="svg_67" stroke="null"/>
    <path fill="#009800" stroke-width="5" stroke-linecap="round" stroke-linejoin="round" stroke-miterlimit="4" stroke-dashoffset="0" d="m-577.3098,1278.171372c16.92237,-30.07349 -35.4801,-114.76953 -26.25586,-150.65991c29.28981,54.48413 47.24097,92.3562 42.01441,140.91333c-3.41651,5.67456 -10.49878,6.56738 -15.75855,9.74658z" id="svg_68" stroke="null"/>
    <path fill="#009800" stroke-width="5" stroke-linecap="round" stroke-linejoin="round" stroke-miterlimit="4" stroke-dashoffset="0" d="m-502.79759,1275.806622c25.24927,-47.25073 55.25854,-94.92139 108.53833,-113.3186c-29.52759,20.45923 -63.09571,41.02417 -76.15772,76.4602c-6.84521,14.83032 -14.69604,32.87647 -32.38061,36.8584z" id="svg_69" stroke="null"/>
    <path fill="#009800" stroke-width="5" stroke-linecap="round" stroke-linejoin="round" stroke-miterlimit="4" stroke-dashoffset="0" d="m-394.02464,1284.764872c20.26417,-9.15991 40.63403,-61.06738 69.03051,-84.9292c-31.30712,78.41382 -42.6035,86.36768 -69.03051,84.9292z" id="svg_70" stroke="null"/>
    <path fill="#009800" stroke-width="5" stroke-linecap="round" stroke-linejoin="round" stroke-miterlimit="4" stroke-dashoffset="0" d="m-537.08323,1267.235332c12.67994,-15.09057 17.68213,-39.51074 39.27027,-44.82446c-11.71095,15.82422 -17.50708,39.77954 -39.27027,44.82446z" id="svg_71" stroke="null"/>
    <path fill="#009800" stroke-width="5" stroke-linecap="round" stroke-linejoin="round" stroke-miterlimit="4" stroke-dashoffset="0" d="m-615.88072,1241.930652c-10.25,-21.32325 -21.0874,-42.66114 -36.16529,-61.04712c42.01722,18.97168 55.64954,50.302 36.16529,61.04712z" id="svg_72" stroke="null"/>
    <path fill="#009800" stroke-width="5" stroke-linecap="round" stroke-linejoin="round" stroke-miterlimit="4" stroke-dashoffset="0" d="m-422.49192,1238.555652c18.25342,-21.31568 39.84424,-40.69581 65.95972,-51.72461c-22.99194,11.94311 -42.07739,44.86816 -65.95972,51.72461z" id="svg_73" stroke="null"/>
   </g>
   <g fill="#009800" display="inline" transform="matrix(0.21137203073443758,0,0,0.31740067353300044,297.7205481873443,986.5132227160174) " id="svg_82" stroke="null">
    <path fill="#009800" stroke-width="5" stroke-linecap="round" stroke-linejoin="round" stroke-miterlimit="4" stroke-dashoffset="0" d="m-651.89049,1286.848132c-12.95605,-57.3003 -65.41821,-104.14942 -110.75512,-139.77832c58.28466,5.96386 98.62036,69.92529 124.03784,117.93383c2.57275,8.97632 -2.44507,22.19751 -13.28272,21.84449z" id="svg_75" stroke="null"/>
    <path fill="#009800" stroke-width="5" stroke-linecap="round" stroke-linejoin="round" stroke-miterlimit="4" stroke-dashoffset="0" d="m-577.3098,1278.171372c16.92237,-30.07349 -35.4801,-114.76953 -26.25586,-150.65991c29.28981,54.48413 47.24097,92.3562 42.01441,140.91333c-3.41651,5.67456 -10.49878,6.56738 -15.75855,9.74658z" id="svg_76" stroke="null"/>
    <path fill="#009800" stroke-width="5" stroke-linecap="round" stroke-linejoin="round" stroke-miterlimit="4" stroke-dashoffset="0" d="m-502.79759,1275.806622c25.24927,-47.25073 55.25854,-94.92139 108.53833,-113.3186c-29.52759,20.45923 -63.09571,41.02417 -76.15772,76.4602c-6.84521,14.83032 -14.69604,32.87647 -32.38061,36.8584z" id="svg_77" stroke="null"/>
    <path fill="#009800" stroke-width="5" stroke-linecap="round" stroke-linejoin="round" stroke-miterlimit="4" stroke-dashoffset="0" d="m-394.02464,1284.764872c20.26417,-9.15991 40.63403,-61.06738 69.03051,-84.9292c-31.30712,78.41382 -42.6035,86.36768 -69.03051,84.9292z" id="svg_78" stroke="null"/>
    <path fill="#009800" stroke-width="5" stroke-linecap="round" stroke-linejoin="round" stroke-miterlimit="4" stroke-dashoffset="0" d="m-537.08323,1267.235332c12.67994,-15.09057 17.68213,-39.51074 39.27027,-44.82446c-11.71095,15.82422 -17.50708,39.77954 -39.27027,44.82446z" id="svg_79" stroke="null"/>
    <path fill="#009800" stroke-width="5" stroke-linecap="round" stroke-linejoin="round" stroke-miterlimit="4" stroke-dashoffset="0" d="m-615.88072,1241.930652c-10.25,-21.32325 -21.0874,-42.66114 -36.16529,-61.04712c42.01722,18.97168 55.64954,50.302 36.16529,61.04712z" id="svg_80" stroke="null"/>
    <path fill="#009800" stroke-width="5" stroke-linecap="round" stroke-linejoin="round" stroke-miterlimit="4" stroke-dashoffset="0" d="m-422.49192,1238.555652c18.25342,-21.31568 39.84424,-40.69581 65.95972,-51.72461c-22.99194,11.94311 -42.07739,44.86816 -65.95972,51.72461z" id="svg_81" stroke="null"/>
   </g>
   <g fill="#009800" display="inline" transform="matrix(0.21137203073443758,0,0,0.31740067353300044,297.7205481873443,986.5132227160174) " id="svg_90" stroke="null">
    <path fill="#009800" stroke-width="5" stroke-linecap="round" stroke-linejoin="round" stroke-miterlimit="4" stroke-dashoffset="0" d="m-651.89049,1286.848132c-12.95606,-57.3003 -65.41822,-104.14942 -110.75513,-139.77832c58.28466,5.96386 98.62036,69.92529 124.03784,117.93383c2.57275,8.97632 -2.44507,22.19751 -13.28272,21.84449l0.00001,0z" id="svg_83" stroke="null"/>
    <path fill="#009800" stroke-width="5" stroke-linecap="round" stroke-linejoin="round" stroke-miterlimit="4" stroke-dashoffset="0" d="m-577.3098,1278.171372c16.92236,-30.07349 -35.4801,-114.76953 -26.25586,-150.65991c29.2898,54.48413 47.24096,92.3562 42.0144,140.91333c-3.4165,5.67456 -10.49877,6.56738 -15.75854,9.74658z" id="svg_84" stroke="null"/>
    <path fill="#009800" stroke-width="5" stroke-linecap="round" stroke-linejoin="round" stroke-miterlimit="4" stroke-dashoffset="0" d="m-502.7976,1275.806622c25.24928,-47.25073 55.25854,-94.92139 108.53833,-113.3186c-29.52759,20.45923 -63.09571,41.02417 -76.15772,76.4602c-6.84521,14.83032 -14.69604,32.87647 -32.38061,36.8584z" id="svg_85" stroke="null"/>
    <path fill="#009800" stroke-width="5" stroke-linecap="round" stroke-linejoin="round" stroke-miterlimit="4" stroke-dashoffset="0" d="m-394.02464,1284.764872c20.26416,-9.15991 40.63403,-61.06738 69.03051,-84.9292c-31.30712,78.41382 -42.60351,86.36768 -69.03051,84.9292z" id="svg_86" stroke="null"/>
    <path fill="#009800" stroke-width="5" stroke-linecap="round" stroke-linejoin="round" stroke-miterlimit="4" stroke-dashoffset="0" d="m-537.08325,1267.235332c12.67994,-15.09057 17.68213,-39.51074 39.27027,-44.82446c-11.71094,15.82422 -17.50708,39.77954 -39.27027,44.82446z" id="svg_87" stroke="null"/>
    <path fill="#009800" stroke-width="5" stroke-linecap="round" stroke-linejoin="round" stroke-miterlimit="4" stroke-dashoffset="0" d="m-615.88072,1241.930652c-10.25,-21.32325 -21.08741,-42.66114 -36.1653,-61.04712c42.01722,18.97168 55.64954,50.302 36.1653,61.04712z" id="svg_88" stroke="null"/>
    <path fill="#009800" stroke-width="5" stroke-linecap="round" stroke-linejoin="round" stroke-miterlimit="4" stroke-dashoffset="0" d="m-422.49194,1238.555652c18.25342,-21.31568 39.84424,-40.69581 65.95972,-51.72461c-22.99194,11.94311 -42.07738,44.86816 -65.95972,51.72461z" id="svg_89" stroke="null"/>
   </g>
   <g fill="#009800" display="inline" transform="matrix(0.21137203073443758,0,0,0.31740067353300044,297.7205481873443,986.5132227160174) " id="svg_98" stroke="null">
    <path fill="#009800" stroke-width="5" stroke-linecap="round" stroke-linejoin="round" stroke-miterlimit="4" stroke-dashoffset="0" d="m-651.89049,1286.848132c-12.95605,-57.3003 -65.41821,-104.14942 -110.75512,-139.77832c58.28466,5.96386 98.62036,69.92529 124.03784,117.93383c2.57275,8.97632 -2.44507,22.19751 -13.28272,21.84449z" id="svg_91" stroke="null"/>
    <path fill="#009800" stroke-width="5" stroke-linecap="round" stroke-linejoin="round" stroke-miterlimit="4" stroke-dashoffset="0" d="m-577.3098,1278.171372c16.92237,-30.07349 -35.4801,-114.76953 -26.25586,-150.65991c29.28981,54.48413 47.24097,92.3562 42.01441,140.91333c-3.41651,5.67456 -10.49878,6.56738 -15.75855,9.74658z" id="svg_92" stroke="null"/>
    <path fill="#009800" stroke-width="5" stroke-linecap="round" stroke-linejoin="round" stroke-miterlimit="4" stroke-dashoffset="0" d="m-502.79759,1275.806622c25.24927,-47.25073 55.25854,-94.92139 108.53833,-113.3186c-29.52759,20.45923 -63.09571,41.02417 -76.15772,76.4602c-6.84521,14.83032 -14.69604,32.87647 -32.38061,36.8584z" id="svg_93" stroke="null"/>
    <path fill="#009800" stroke-width="5" stroke-linecap="round" stroke-linejoin="round" stroke-miterlimit="4" stroke-dashoffset="0" d="m-394.02464,1284.764872c20.26417,-9.15991 40.63403,-61.06738 69.03051,-84.9292c-31.30712,78.41382 -42.6035,86.36768 -69.03051,84.9292z" id="svg_94" stroke="null"/>
    <path fill="#009800" stroke-width="5" stroke-linecap="round" stroke-linejoin="round" stroke-miterlimit="4" stroke-dashoffset="0" d="m-537.08323,1267.235332c12.67994,-15.09057 17.68213,-39.51074 39.27027,-44.82446c-11.71095,15.82422 -17.50708,39.77954 -39.27027,44.82446z" id="svg_95" stroke="null"/>
    <path fill="#009800" stroke-width="5" stroke-linecap="round" stroke-linejoin="round" stroke-miterlimit="4" stroke-dashoffset="0" d="m-615.88072,1241.930652c-10.25,-21.32325 -21.0874,-42.66114 -36.16529,-61.04712c42.01722,18.97168 55.64954,50.302 36.16529,61.04712z" id="svg_96" stroke="null"/>
    <path fill="#009800" stroke-width="5" stroke-linecap="round" stroke-linejoin="round" stroke-miterlimit="4" stroke-dashoffset="0" d="m-422.49192,1238.555652c18.25342,-21.31568 39.84424,-40.69581 65.95972,-51.72461c-22.99194,11.94311 -42.07739,44.86816 -65.95972,51.72461z" id="svg_97" stroke="null"/>
   </g>
   <g fill="#009800" display="inline" transform="matrix(0.21137203073443758,0,0,0.31740067353300044,297.7205481873443,986.5132227160174) " id="svg_106" stroke="null">
    <path fill="#009800" stroke-width="5" stroke-linecap="round" stroke-linejoin="round" stroke-miterlimit="4" stroke-dashoffset="0" d="m-651.89049,1286.848132c-12.95605,-57.3003 -65.41821,-104.14942 -110.75512,-139.77832c58.28466,5.96386 98.62036,69.92529 124.03784,117.93383c2.57275,8.97632 -2.44507,22.19751 -13.28272,21.84449z" id="svg_99" stroke="null"/>
    <path fill="#009800" stroke-width="5" stroke-linecap="round" stroke-linejoin="round" stroke-miterlimit="4" stroke-dashoffset="0" d="m-577.3098,1278.171372c16.92236,-30.07349 -35.4801,-114.76953 -26.25586,-150.65991c29.2898,54.48413 47.24097,92.3562 42.0144,140.91333c-3.4165,5.67456 -10.49877,6.56738 -15.75854,9.74658z" id="svg_100" stroke="null"/>
    <path fill="#009800" stroke-width="5" stroke-linecap="round" stroke-linejoin="round" stroke-miterlimit="4" stroke-dashoffset="0" d="m-502.79759,1275.806622c25.24927,-47.25073 55.25854,-94.92139 108.53833,-113.3186c-29.52759,20.45923 -63.09571,41.02417 -76.15772,76.4602c-6.84521,14.83032 -14.69604,32.87647 -32.38061,36.8584z" id="svg_101" stroke="null"/>
    <path fill="#009800" stroke-width="5" stroke-linecap="round" stroke-linejoin="round" stroke-miterlimit="4" stroke-dashoffset="0" d="m-394.02464,1284.764872c20.26416,-9.15991 40.63403,-61.06738 69.03051,-84.9292c-31.30712,78.41382 -42.60351,86.36768 -69.03051,84.9292z" id="svg_102" stroke="null"/>
    <path fill="#009800" stroke-width="5" stroke-linecap="round" stroke-linejoin="round" stroke-miterlimit="4" stroke-dashoffset="0" d="m-537.08324,1267.235332c12.67994,-15.09057 17.68213,-39.51074 39.27027,-44.82446c-11.71094,15.82422 -17.50708,39.77954 -39.27027,44.82446z" id="svg_103" stroke="null"/>
    <path fill="#009800" stroke-width="5" stroke-linecap="round" stroke-linejoin="round" stroke-miterlimit="4" stroke-dashoffset="0" d="m-615.88072,1241.930652c-10.25,-21.32325 -21.08741,-42.66114 -36.16529,-61.04712c42.01722,18.97168 55.64954,50.302 36.16529,61.04712z" id="svg_104" stroke="null"/>
    <path fill="#009800" stroke-width="5" stroke-linecap="round" stroke-linejoin="round" stroke-miterlimit="4" stroke-dashoffset="0" d="m-422.49193,1238.555652c18.25342,-21.31568 39.84424,-40.69581 65.95972,-51.72461c-22.99194,11.94311 -42.07739,44.86816 -65.95972,51.72461z" id="svg_105" stroke="null"/>
   </g>
   <g fill="#009800" display="inline" transform="matrix(0.21137203073443758,0,0,0.31740067353300044,297.7205481873443,986.5132227160174) " id="svg_114" stroke="null">
    <path fill="#009800" stroke-width="5" stroke-linecap="round" stroke-linejoin="round" stroke-miterlimit="4" stroke-dashoffset="0" d="m-651.89049,1286.848132c-12.95605,-57.3003 -65.41821,-104.14942 -110.75512,-139.77832c58.28466,5.96386 98.62036,69.92529 124.03784,117.93383c2.57275,8.97632 -2.44507,22.19751 -13.28272,21.84449z" id="svg_107" stroke="null"/>
    <path fill="#009800" stroke-width="5" stroke-linecap="round" stroke-linejoin="round" stroke-miterlimit="4" stroke-dashoffset="0" d="m-577.3098,1278.171372c16.92236,-30.07349 -35.4801,-114.76953 -26.25586,-150.65991c29.2898,54.48413 47.24097,92.3562 42.0144,140.91333c-3.4165,5.67456 -10.49877,6.56738 -15.75854,9.74658z" id="svg_108" stroke="null"/>
    <path fill="#009800" stroke-width="5" stroke-linecap="round" stroke-linejoin="round" stroke-miterlimit="4" stroke-dashoffset="0" d="m-502.79759,1275.806622c25.24927,-47.25073 55.25854,-94.92139 108.53833,-113.3186c-29.52759,20.45923 -63.09571,41.02417 -76.15772,76.4602c-6.84521,14.83032 -14.69604,32.87647 -32.38061,36.8584z" id="svg_109" stroke="null"/>
    <path fill="#009800" stroke-width="5" stroke-linecap="round" stroke-linejoin="round" stroke-miterlimit="4" stroke-dashoffset="0" d="m-394.02464,1284.764872c20.26416,-9.15991 40.63403,-61.06738 69.03051,-84.9292c-31.30712,78.41382 -42.60351,86.36768 -69.03051,84.9292z" id="svg_110" stroke="null"/>
    <path fill="#009800" stroke-width="5" stroke-linecap="round" stroke-linejoin="round" stroke-miterlimit="4" stroke-dashoffset="0" d="m-537.08324,1267.235332c12.67994,-15.09057 17.68213,-39.51074 39.27027,-44.82446c-11.71094,15.82422 -17.50708,39.77954 -39.27027,44.82446z" id="svg_111" stroke="null"/>
    <path fill="#009800" stroke-width="5" stroke-linecap="round" stroke-linejoin="round" stroke-miterlimit="4" stroke-dashoffset="0" d="m-615.88072,1241.930652c-10.25,-21.32325 -21.08741,-42.66114 -36.16529,-61.04712c42.01722,18.97168 55.64954,50.302 36.16529,61.04712z" id="svg_112" stroke="null"/>
    <path fill="#009800" stroke-width="5" stroke-linecap="round" stroke-linejoin="round" stroke-miterlimit="4" stroke-dashoffset="0" d="m-422.49193,1238.555652c18.25342,-21.31568 39.84424,-40.69581 65.95972,-51.72461c-22.99194,11.94311 -42.07739,44.86816 -65.95972,51.72461z" id="svg_113" stroke="null"/>
   </g>
   <g fill="#009800" display="inline" transform="matrix(0.21137203073443758,0,0,0.31740067353300044,297.7205481873443,986.5132227160174) " id="svg_122" stroke="null">
    <path fill="#009800" stroke-width="5" stroke-linecap="round" stroke-linejoin="round" stroke-miterlimit="4" stroke-dashoffset="0" d="m-651.89049,1286.848132c-12.95605,-57.3003 -65.41821,-104.14942 -110.75512,-139.77832c58.28466,5.96386 98.62036,69.92529 124.03784,117.93383c2.57275,8.97632 -2.44507,22.19751 -13.28272,21.84449z" id="svg_115" stroke="null"/>
    <path fill="#009800" stroke-width="5" stroke-linecap="round" stroke-linejoin="round" stroke-miterlimit="4" stroke-dashoffset="0" d="m-577.3098,1278.171372c16.92236,-30.07349 -35.4801,-114.76953 -26.25586,-150.65991c29.2898,54.48413 47.24097,92.3562 42.0144,140.91333c-3.4165,5.67456 -10.49877,6.56738 -15.75854,9.74658z" id="svg_116" stroke="null"/>
    <path fill="#009800" stroke-width="5" stroke-linecap="round" stroke-linejoin="round" stroke-miterlimit="4" stroke-dashoffset="0" d="m-502.79759,1275.806622c25.24927,-47.25073 55.25854,-94.92139 108.53833,-113.3186c-29.52759,20.45923 -63.09571,41.02417 -76.15772,76.4602c-6.84521,14.83032 -14.69604,32.87647 -32.38061,36.8584z" id="svg_117" stroke="null"/>
    <path fill="#009800" stroke-width="5" stroke-linecap="round" stroke-linejoin="round" stroke-miterlimit="4" stroke-dashoffset="0" d="m-394.02464,1284.764872c20.26416,-9.15991 40.63403,-61.06738 69.03051,-84.9292c-31.30712,78.41382 -42.60351,86.36768 -69.03051,84.9292z" id="svg_118" stroke="null"/>
    <path fill="#009800" stroke-width="5" stroke-linecap="round" stroke-linejoin="round" stroke-miterlimit="4" stroke-dashoffset="0" d="m-537.08324,1267.235332c12.67994,-15.09057 17.68213,-39.51074 39.27027,-44.82446c-11.71094,15.82422 -17.50708,39.77954 -39.27027,44.82446z" id="svg_119" stroke="null"/>
    <path fill="#009800" stroke-width="5" stroke-linecap="round" stroke-linejoin="round" stroke-miterlimit="4" stroke-dashoffset="0" d="m-615.88072,1241.930652c-10.25,-21.32325 -21.08741,-42.66114 -36.16529,-61.04712c42.01722,18.97168 55.64954,50.302 36.16529,61.04712z" id="svg_120" stroke="null"/>
    <path fill="#009800" stroke-width="5" stroke-linecap="round" stroke-linejoin="round" stroke-miterlimit="4" stroke-dashoffset="0" d="m-422.49193,1238.555652c18.25342,-21.31568 39.84424,-40.69581 65.95972,-51.72461c-22.99194,11.94311 -42.07739,44.86816 -65.95972,51.72461z" id="svg_121" stroke="null"/>
   </g>
   <g fill="#009800" display="inline" transform="matrix(0.21137203073443758,0,0,0.31740067353300044,297.7205481873443,986.5132227160174) " id="svg_130" stroke="null">
    <path fill="#009800" stroke-width="5" stroke-linecap="round" stroke-linejoin="round" stroke-miterlimit="4" stroke-dashoffset="0" d="m-651.89049,1286.848132c-12.95605,-57.3003 -65.41821,-104.14942 -110.75512,-139.77832c58.28466,5.96386 98.62036,69.92529 124.03784,117.93383c2.57275,8.97632 -2.44507,22.19751 -13.28272,21.84449z" id="svg_123" stroke="null"/>
    <path fill="#009800" stroke-width="5" stroke-linecap="round" stroke-linejoin="round" stroke-miterlimit="4" stroke-dashoffset="0" d="m-577.3098,1278.171372c16.92236,-30.07349 -35.4801,-114.76953 -26.25586,-150.65991c29.2898,54.48413 47.24097,92.3562 42.0144,140.91333c-3.4165,5.67456 -10.49877,6.56738 -15.75854,9.74658z" id="svg_124" stroke="null"/>
    <path fill="#009800" stroke-width="5" stroke-linecap="round" stroke-linejoin="round" stroke-miterlimit="4" stroke-dashoffset="0" d="m-502.79759,1275.806622c25.24927,-47.25073 55.25854,-94.92139 108.53833,-113.3186c-29.52759,20.45923 -63.09571,41.02417 -76.15772,76.4602c-6.84521,14.83032 -14.69604,32.87647 -32.38061,36.8584z" id="svg_125" stroke="null"/>
    <path fill="#009800" stroke-width="5" stroke-linecap="round" stroke-linejoin="round" stroke-miterlimit="4" stroke-dashoffset="0" d="m-394.02464,1284.764872c20.26416,-9.15991 40.63403,-61.06738 69.03051,-84.9292c-31.30712,78.41382 -42.60351,86.36768 -69.03051,84.9292z" id="svg_126" stroke="null"/>
    <path fill="#009800" stroke-width="5" stroke-linecap="round" stroke-linejoin="round" stroke-miterlimit="4" stroke-dashoffset="0" d="m-537.08324,1267.235332c12.67994,-15.09057 17.68213,-39.51074 39.27027,-44.82446c-11.71094,15.82422 -17.50708,39.77954 -39.27027,44.82446z" id="svg_127" stroke="null"/>
    <path fill="#009800" stroke-width="5" stroke-linecap="round" stroke-linejoin="round" stroke-miterlimit="4" stroke-dashoffset="0" d="m-615.88072,1241.930652c-10.25,-21.32325 -21.08741,-42.66114 -36.16529,-61.04712c42.01722,18.97168 55.64954,50.302 36.16529,61.04712z" id="svg_128" stroke="null"/>
    <path fill="#009800" stroke-width="5" stroke-linecap="round" stroke-linejoin="round" stroke-miterlimit="4" stroke-dashoffset="0" d="m-422.49193,1238.555652c18.25342,-21.31568 39.84424,-40.69581 65.95972,-51.72461c-22.99194,11.94311 -42.07739,44.86816 -65.95972,51.72461z" id="svg_129" stroke="null"/>
   </g>
   <g fill="#009800" display="inline" transform="matrix(0.21137203073443758,0,0,0.31740067353300044,297.7205481873443,986.5132227160174) " id="svg_138" stroke="null">
    <path fill="#009800" stroke-width="5" stroke-linecap="round" stroke-linejoin="round" stroke-miterlimit="4" stroke-dashoffset="0" d="m-651.89049,1286.848132c-12.95605,-57.3003 -65.41821,-104.14942 -110.75512,-139.77832c58.28466,5.96386 98.62036,69.92529 124.03784,117.93383c2.57275,8.97632 -2.44507,22.19751 -13.28272,21.84449z" id="svg_131" stroke="null"/>
    <path fill="#009800" stroke-width="5" stroke-linecap="round" stroke-linejoin="round" stroke-miterlimit="4" stroke-dashoffset="0" d="m-577.3098,1278.171372c16.92236,-30.07349 -35.4801,-114.76953 -26.25586,-150.65991c29.2898,54.48413 47.24097,92.3562 42.0144,140.91333c-3.4165,5.67456 -10.49877,6.56738 -15.75854,9.74658z" id="svg_132" stroke="null"/>
    <path fill="#009800" stroke-width="5" stroke-linecap="round" stroke-linejoin="round" stroke-miterlimit="4" stroke-dashoffset="0" d="m-502.79759,1275.806622c25.24927,-47.25073 55.25854,-94.92139 108.53833,-113.3186c-29.52759,20.45923 -63.09571,41.02417 -76.15772,76.4602c-6.84521,14.83032 -14.69604,32.87647 -32.38061,36.8584z" id="svg_133" stroke="null"/>
    <path fill="#009800" stroke-width="5" stroke-linecap="round" stroke-linejoin="round" stroke-miterlimit="4" stroke-dashoffset="0" d="m-394.02464,1284.764872c20.26416,-9.15991 40.63403,-61.06738 69.03051,-84.9292c-31.30712,78.41382 -42.60351,86.36768 -69.03051,84.9292z" id="svg_134" stroke="null"/>
    <path fill="#009800" stroke-width="5" stroke-linecap="round" stroke-linejoin="round" stroke-miterlimit="4" stroke-dashoffset="0" d="m-537.08324,1267.235332c12.67994,-15.09057 17.68213,-39.51074 39.27027,-44.82446c-11.71094,15.82422 -17.50708,39.77954 -39.27027,44.82446z" id="svg_135" stroke="null"/>
    <path fill="#009800" stroke-width="5" stroke-linecap="round" stroke-linejoin="round" stroke-miterlimit="4" stroke-dashoffset="0" d="m-615.88072,1241.930652c-10.25,-21.32325 -21.08741,-42.66114 -36.16529,-61.04712c42.01722,18.97168 55.64954,50.302 36.16529,61.04712z" id="svg_136" stroke="null"/>
    <path fill="#009800" stroke-width="5" stroke-linecap="round" stroke-linejoin="round" stroke-miterlimit="4" stroke-dashoffset="0" d="m-422.49193,1238.555652c18.25342,-21.31568 39.84424,-40.69581 65.95972,-51.72461c-22.99194,11.94311 -42.07739,44.86816 -65.95972,51.72461z" id="svg_137" stroke="null"/>
   </g>
   <g fill="#009800" display="inline" transform="matrix(0.21137203073443758,0,0,0.31740067353300044,297.7205481873443,986.5132227160174) " id="svg_146" stroke="null">
    <path fill="#009800" stroke-width="5" stroke-linecap="round" stroke-linejoin="round" stroke-miterlimit="4" stroke-dashoffset="0" d="m-651.89049,1286.848132c-12.95605,-57.3003 -65.41821,-104.14942 -110.75512,-139.77832c58.28466,5.96386 98.62036,69.92529 124.03784,117.93383c2.57275,8.97632 -2.44507,22.19751 -13.28272,21.84449z" id="svg_139" stroke="null"/>
    <path fill="#009800" stroke-width="5" stroke-linecap="round" stroke-linejoin="round" stroke-miterlimit="4" stroke-dashoffset="0" d="m-577.3098,1278.171372c16.92236,-30.07349 -35.4801,-114.76953 -26.25586,-150.65991c29.2898,54.48413 47.24097,92.3562 42.0144,140.91333c-3.4165,5.67456 -10.49877,6.56738 -15.75854,9.74658z" id="svg_140" stroke="null"/>
    <path fill="#009800" stroke-width="5" stroke-linecap="round" stroke-linejoin="round" stroke-miterlimit="4" stroke-dashoffset="0" d="m-502.79759,1275.806622c25.24927,-47.25073 55.25854,-94.92139 108.53833,-113.3186c-29.52759,20.45923 -63.09571,41.02417 -76.15772,76.4602c-6.84521,14.83032 -14.69604,32.87647 -32.38061,36.8584z" id="svg_141" stroke="null"/>
    <path fill="#009800" stroke-width="5" stroke-linecap="round" stroke-linejoin="round" stroke-miterlimit="4" stroke-dashoffset="0" d="m-394.02464,1284.764872c20.26416,-9.15991 40.63403,-61.06738 69.03051,-84.9292c-31.30712,78.41382 -42.60351,86.36768 -69.03051,84.9292z" id="svg_142" stroke="null"/>
    <path fill="#009800" stroke-width="5" stroke-linecap="round" stroke-linejoin="round" stroke-miterlimit="4" stroke-dashoffset="0" d="m-537.08324,1267.235332c12.67994,-15.09057 17.68213,-39.51074 39.27027,-44.82446c-11.71094,15.82422 -17.50708,39.77954 -39.27027,44.82446z" id="svg_143" stroke="null"/>
    <path fill="#009800" stroke-width="5" stroke-linecap="round" stroke-linejoin="round" stroke-miterlimit="4" stroke-dashoffset="0" d="m-615.88072,1241.930652c-10.25,-21.32325 -21.08741,-42.66114 -36.16529,-61.04712c42.01722,18.97168 55.64954,50.302 36.16529,61.04712z" id="svg_144" stroke="null"/>
    <path fill="#009800" stroke-width="5" stroke-linecap="round" stroke-linejoin="round" stroke-miterlimit="4" stroke-dashoffset="0" d="m-422.49193,1238.555652c18.25342,-21.31568 39.84424,-40.69581 65.95972,-51.72461c-22.99194,11.94311 -42.07739,44.86816 -65.95972,51.72461z" id="svg_145" stroke="null"/>
   </g>
  </g>
  <use x="3449.514103" y="2168.266008" xlink:href="#svg_10" id="svg_12"/>
 </g>
</svg>